<mxfile host="65bd71144e">
    <diagram id="fJ4djnBpITY3yPH3W6va" name="Page-1">
        <mxGraphModel dx="1297" dy="913" grid="1" gridSize="10" guides="1" tooltips="1" connect="1" arrows="1" fold="1" page="0" pageScale="1" pageWidth="850" pageHeight="1100" background="none" math="0" shadow="0">
            <root>
                <mxCell id="0"/>
                <mxCell id="1" parent="0"/>
                <mxCell id="42" value="" style="rounded=1;whiteSpace=wrap;html=1;fillColor=#ffe6cc;strokeColor=#d79b00;" parent="1" vertex="1">
                    <mxGeometry x="3046" y="4900" width="230" height="200" as="geometry"/>
                </mxCell>
                <mxCell id="26" value="" style="rounded=1;whiteSpace=wrap;html=1;fillColor=#fad9d5;strokeColor=#ae4132;" parent="1" vertex="1">
                    <mxGeometry x="-230" y="4850" width="2471" height="790" as="geometry"/>
                </mxCell>
                <mxCell id="24" value="" style="rounded=1;whiteSpace=wrap;html=1;fillColor=#fff2cc;strokeColor=#d6b656;" parent="1" vertex="1">
                    <mxGeometry x="-310" y="4250" width="4310" height="490" as="geometry"/>
                </mxCell>
                <mxCell id="22" value="" style="rounded=1;whiteSpace=wrap;html=1;fillColor=#fad7ac;strokeColor=#b46504;" parent="1" vertex="1">
                    <mxGeometry x="-280" y="3720" width="4260" height="490" as="geometry"/>
                </mxCell>
                <mxCell id="20" value="" style="rounded=1;whiteSpace=wrap;html=1;fillColor=#b0e3e6;strokeColor=#0e8088;" parent="1" vertex="1">
                    <mxGeometry x="1320" y="3120" width="790" height="570" as="geometry"/>
                </mxCell>
                <mxCell id="17" value="" style="rounded=1;whiteSpace=wrap;html=1;fillColor=#d0cee2;strokeColor=#56517e;" parent="1" vertex="1">
                    <mxGeometry x="1090" y="2560" width="2260" height="550" as="geometry"/>
                </mxCell>
                <mxCell id="14" value="" style="rounded=1;whiteSpace=wrap;html=1;fillColor=#b1ddf0;strokeColor=#10739e;" parent="1" vertex="1">
                    <mxGeometry x="2080" y="2250" width="389.5" height="280" as="geometry"/>
                </mxCell>
                <mxCell id="12" value="" style="rounded=1;whiteSpace=wrap;html=1;fillColor=#d5e8d4;strokeColor=#82b366;" parent="1" vertex="1">
                    <mxGeometry x="3620" y="2130" width="450" height="820" as="geometry"/>
                </mxCell>
                <mxCell id="7" value="" style="rounded=1;whiteSpace=wrap;html=1;fillColor=#f8cecc;strokeColor=#b85450;" parent="1" vertex="1">
                    <mxGeometry x="750" y="450" width="3050" height="1670" as="geometry"/>
                </mxCell>
                <mxCell id="5" value="&lt;div&gt;&amp;nbsp; &amp;nbsp; &amp;nbsp; &amp;nbsp; &amp;nbsp; &amp;nbsp;&lt;/div&gt;&lt;div&gt;&lt;br&gt;&lt;/div&gt;&lt;div&gt;&lt;br&gt;&lt;/div&gt;&lt;div&gt;&lt;br&gt;&lt;/div&gt;&lt;div&gt;&lt;br&gt;&lt;/div&gt;&lt;div&gt;&lt;br&gt;&lt;/div&gt;&lt;div&gt;&lt;br&gt;&lt;/div&gt;&lt;div&gt;&lt;br&gt;&lt;/div&gt;&lt;div&gt;&lt;br&gt;&lt;/div&gt;&lt;div&gt;&lt;br&gt;&lt;/div&gt;&lt;div&gt;&lt;br&gt;&lt;/div&gt;&lt;div&gt;&lt;br&gt;&lt;/div&gt;&lt;div&gt;&lt;br&gt;&lt;/div&gt;&lt;div&gt;&lt;br&gt;&lt;/div&gt;&lt;div&gt;&lt;br&gt;&lt;/div&gt;&lt;div&gt;&lt;br&gt;&lt;/div&gt;&lt;div&gt;&lt;br&gt;&lt;/div&gt;&lt;div&gt;&lt;br&gt;&lt;/div&gt;&lt;div&gt;&lt;br&gt;&lt;/div&gt;&lt;div&gt;&lt;br&gt;&lt;/div&gt;&lt;div&gt;&lt;br&gt;&lt;/div&gt;&lt;div&gt;&lt;br&gt;&lt;/div&gt;&lt;div&gt;&lt;br&gt;&lt;/div&gt;&lt;div&gt;&lt;br&gt;&lt;/div&gt;&lt;div&gt;&lt;br&gt;&lt;/div&gt;&lt;div&gt;&lt;br&gt;&lt;/div&gt;" style="rounded=1;whiteSpace=wrap;html=1;fillColor=#b1ddf0;strokeColor=#10739e;align=left;" parent="1" vertex="1">
                    <mxGeometry x="1620" y="-38.5" width="2420" height="430" as="geometry"/>
                </mxCell>
                <mxCell id="node37" value="&lt;p style=&quot;margin:0px;margin-top:4px;text-align:center;&quot;&gt;&lt;b&gt;AppContext&lt;/b&gt;&lt;/p&gt;&lt;hr size=&quot;1&quot;&gt;&lt;p style=&quot;margin:0 0 0 4px;line-height:1.6;&quot;&gt;+ AppContext(Scanner, AuthController, UserModel, UserRepo,&lt;/p&gt;&lt;p style=&quot;margin:0 0 0 4px;line-height:1.6;&quot;&gt;&lt;span style=&quot;white-space: pre;&quot;&gt;&#x9;&lt;/span&gt;&lt;span style=&quot;white-space: pre;&quot;&gt;&#x9;&lt;/span&gt;&lt;span style=&quot;white-space: pre;&quot;&gt;&#x9;&lt;/span&gt;ProjectRepo, EnquiryRepo, ApplicationRepo,&lt;/p&gt;&lt;p style=&quot;margin:0 0 0 4px;line-height:1.6;&quot;&gt;&lt;span style=&quot;white-space: pre;&quot;&gt;&#x9;&lt;/span&gt;&lt;span style=&quot;white-space: pre;&quot;&gt;&#x9;&lt;/span&gt;&lt;span style=&quot;white-space: pre;&quot;&gt;&#x9;&lt;/span&gt;OfficerRegistrationRepo): &lt;/p&gt;&lt;hr size=&quot;1&quot;&gt;&lt;p style=&quot;margin:0 0 0 4px;line-height:1.6;&quot;&gt;- currentUser: UserModel&lt;br&gt;- userRepo: UserRepo&lt;br&gt;- applicationRepo: ApplicationRepo&lt;br&gt;- enquiryRepo: EnquiryRepo&lt;br&gt;- authController: AuthController&lt;br&gt;- scanner: Scanner&lt;br&gt;- officerRegistrationRepo: OfficerRegistrationRepo&lt;br&gt;- projectRepo: ProjectRepo&lt;/p&gt;&lt;hr size=&quot;1&quot;&gt;&lt;p style=&quot;margin:0 0 0 4px;line-height:1.6;&quot;&gt;+ getApplicationRepo(): ApplicationRepo&lt;br&gt;+ setCurrentUser(UserModel): void&lt;br&gt;+ getEnquiryRepo(): EnquiryRepo&lt;br&gt;+ getUserRepo(): UserRepo&lt;br&gt;+ getCurrentUser(): UserModel&lt;br&gt;+ getScanner(): Scanner&lt;br&gt;+ getProjectRepo(): ProjectRepo&lt;br&gt;+ getOfficerRegistrationRepo(): OfficerRegistrationRepo&lt;br&gt;+ getAuthService(): AuthController&lt;/p&gt;" style="verticalAlign=top;align=left;overflow=fill;fontSize=14;fontFamily=Helvetica;html=1;rounded=0;shadow=0;comic=0;labelBackgroundColor=none;strokeWidth=1;" parent="1" vertex="1">
                    <mxGeometry x="1481" y="3143" width="414" height="527" as="geometry"/>
                </mxCell>
                <mxCell id="node32" value="&lt;p style=&quot;margin:0px;margin-top:4px;text-align:center;&quot;&gt;&lt;b&gt;ApplicantModel&lt;/b&gt;&lt;/p&gt;&lt;hr size=&quot;1&quot;/&gt;&lt;p style=&quot;margin:0 0 0 4px;line-height:1.6;&quot;&gt;+ ApplicantModel(String, String, int, String, String, UserRole): &lt;/p&gt;&lt;hr size=&quot;1&quot;/&gt;&lt;p style=&quot;margin:0 0 0 4px;line-height:1.6;&quot;&gt;- bookedFlatType: FlatType&lt;br/&gt;- bookedProject: BTOProjectModel&lt;br/&gt;- appliedProject: int&lt;/p&gt;&lt;hr size=&quot;1&quot;/&gt;&lt;p style=&quot;margin:0 0 0 4px;line-height:1.6;&quot;&gt;+ getMenuOptions(): List&amp;lt;String&amp;gt;&lt;br/&gt;+ getAppliedProjectID(): int&lt;br/&gt;+ getFlatType(): FlatType&lt;/p&gt;" style="verticalAlign=top;align=left;overflow=fill;fontSize=14;fontFamily=Helvetica;html=1;rounded=0;shadow=0;comic=0;labelBackgroundColor=none;strokeWidth=1;" parent="1" vertex="1">
                    <mxGeometry x="2771" y="1190" width="404" height="220" as="geometry"/>
                </mxCell>
                <mxCell id="node40" value="&lt;p style=&quot;margin:0px;margin-top:4px;text-align:center;&quot;&gt;&lt;b&gt;ApplicantView&lt;/b&gt;&lt;/p&gt;&lt;hr size=&quot;1&quot;&gt;&lt;p style=&quot;margin:0 0 0 4px;line-height:1.6;&quot;&gt;+ ApplicantView(): &lt;/p&gt;&lt;hr size=&quot;1&quot;&gt;&lt;p style=&quot;margin:0 0 0 4px;line-height:1.6;&quot;&gt;- applicationController: ApplicationController&lt;br&gt;- enquiryController: EnquiryController&lt;br&gt;- userController: UserController&lt;br&gt;- projectController: ProjectController&lt;br&gt;- projectView: ProjectView&lt;/p&gt;&lt;hr size=&quot;1&quot;&gt;&lt;p style=&quot;margin:0 0 0 4px;line-height:1.6;&quot;&gt;&lt;span style=&quot;color: rgb(63, 63, 63);&quot;&gt;+ ApplicantMenu(AppContext): void&lt;/span&gt;&lt;/p&gt;&lt;p style=&quot;margin:0 0 0 4px;line-height:1.6;&quot;&gt;- generateReceiptMenu(AppContext): void&lt;br&gt;- viewMyEnquiriesMenu(AppContext): void&lt;br&gt;- submitEnquiryMenu(AppContext): void&lt;br&gt;- applyForProjectMenu(AppContext): void&lt;br&gt;- viewApplicationStatusMenu(AppContext): void&lt;/p&gt;" style="verticalAlign=top;align=left;overflow=fill;fontSize=14;fontFamily=Helvetica;html=1;rounded=0;shadow=0;comic=0;labelBackgroundColor=none;strokeWidth=1;" parent="1" vertex="1">
                    <mxGeometry x="1085" y="5038" width="334" height="332" as="geometry"/>
                </mxCell>
                <mxCell id="node28" value="&lt;p style=&quot;margin:0px;margin-top:4px;text-align:center;&quot;&gt;&lt;b&gt;ApplicationController&lt;/b&gt;&lt;/p&gt;&lt;hr size=&quot;1&quot;&gt;&lt;p style=&quot;margin:0 0 0 4px;line-height:1.6;&quot;&gt;+ ApplicationController(ApplicationService): &lt;br&gt;+ ApplicationController(AppContext): &lt;/p&gt;&lt;hr size=&quot;1&quot;&gt;&lt;p style=&quot;margin:0 0 0 4px;line-height:1.6;&quot;&gt;- applicationService: ApplicationService&lt;/p&gt;&lt;hr size=&quot;1&quot;&gt;&lt;p style=&quot;margin:0 0 0 4px;line-height:1.6;&quot;&gt;+ approveApplicantWithdrawalApplication(BTOApplicationModel): boolean&lt;br&gt;+ updateApplicationStatus(BTOApplicationModel, ApplicationStatus): void&lt;br&gt;+ rejectApplicantWithdrawalApplication(BTOApplicationModel): boolean&lt;br&gt;+ rejectApplicantApplication(BTOApplicationModel): Boolean&lt;br&gt;+ viewApplicationByNRIC(int, String, BTOApplicationModel[]): boolean&lt;br&gt;+ viewApplicationStatus(BTOApplicationModel): ApplicationStatus&lt;br&gt;+ generateReceipt(BTOApplicationModel): Receipt&lt;br&gt;+ rejectApplication(BTOApplicationModel): void&lt;br&gt;+ updateApplicationFlatType(int, FlatType, List&amp;lt;FlatType&amp;gt;): boolean&lt;br&gt;+ approveApplication(BTOApplicationModel): void&lt;br&gt;+ updateApplicationStatusToBooked(int): boolean&lt;br&gt;+ approveApplicantApplication(BTOApplicationModel): Boolean&lt;br&gt;+ viewAvailableProjectsForApplicant(): void&lt;/p&gt;&lt;p style=&quot;margin:0 0 0 4px;line-height:1.6;&quot;&gt;+ getAvailableProjectsForApplicant() : List&amp;lt;BTOProjectModel&amp;gt;&lt;br&gt;+ applyToProject(ProjectRepo, Scanner, UserModel): Boolean&lt;/p&gt;" style="verticalAlign=top;align=left;overflow=fill;fontSize=14;fontFamily=Helvetica;html=1;rounded=0;shadow=0;comic=0;labelBackgroundColor=none;strokeWidth=1;" parent="1" vertex="1">
                    <mxGeometry x="1469" y="4260" width="492" height="470" as="geometry"/>
                </mxCell>
                <mxCell id="node30" value="&lt;p style=&quot;margin:0px;margin-top:4px;text-align:center;&quot;&gt;&lt;b&gt;ApplicationRepo&lt;/b&gt;&lt;/p&gt;&lt;hr size=&quot;1&quot;/&gt;&lt;p style=&quot;margin:0 0 0 4px;line-height:1.6;&quot;&gt;+ ApplicationRepo(): &lt;/p&gt;&lt;hr size=&quot;1&quot;/&gt;&lt;p style=&quot;margin:0 0 0 4px;line-height:1.6;&quot;&gt;- applications: List&amp;lt;BTOApplicationModel&amp;gt;&lt;/p&gt;&lt;hr size=&quot;1&quot;/&gt;&lt;p style=&quot;margin:0 0 0 4px;line-height:1.6;&quot;&gt;+ findByNRIC(String): Optional&amp;lt;BTOApplicationModel&amp;gt;&lt;br/&gt;+ findBookedByProjectID(int): List&amp;lt;BTOApplicationModel&amp;gt;&lt;br/&gt;+ findByApplicationID(int): Optional&amp;lt;BTOApplicationModel&amp;gt;&lt;br/&gt;+ findAll(): List&amp;lt;BTOApplicationModel&amp;gt;&lt;br/&gt;+ findByID(Integer): BTOApplicationModel&lt;br/&gt;+ findbyUserID(long): Optional&amp;lt;BTOApplicationModel&amp;gt;&lt;br/&gt;+ hasUserAppliedForProject(int, int): boolean&lt;br/&gt;+ findApplicationByApplicantID(int): List&amp;lt;BTOApplicationModel&amp;gt;&lt;br/&gt;+ getApplicationStatus(int, int): ApplicationStatus&lt;br/&gt;+ findPendingWithDrawalByProjectID(int): List&amp;lt;BTOApplicationModel&amp;gt;&lt;br/&gt;+ save(BTOApplicationModel): void&lt;br/&gt;+ findPendingByProjectID(int): List&amp;lt;BTOApplicationModel&amp;gt;&lt;br/&gt;+ delete(Integer): boolean&lt;br/&gt;+ canApplyForProject(int): boolean&lt;br/&gt;+ findByProjectID(int): List&amp;lt;BTOApplicationModel&amp;gt;&lt;br/&gt;+ findByUserAndProject(int, int): BTOApplicationModel&lt;br/&gt;+ findActiveByApplicantID(String): Optional&amp;lt;BTOApplicationModel&amp;gt;&lt;/p&gt;" style="verticalAlign=top;align=left;overflow=fill;fontSize=14;fontFamily=Helvetica;html=1;rounded=0;shadow=0;comic=0;labelBackgroundColor=none;strokeWidth=1;" parent="1" vertex="1">
                    <mxGeometry x="2783" y="2581" width="467" height="499" as="geometry"/>
                </mxCell>
                <mxCell id="node42" value="&lt;p style=&quot;margin:0px;margin-top:4px;text-align:center;&quot;&gt;&lt;b&gt;ApplicationService&lt;/b&gt;&lt;/p&gt;&lt;hr size=&quot;1&quot;&gt;&lt;p style=&quot;margin:0 0 0 4px;line-height:1.6;&quot;&gt;+ ApplicationService(AppContext): &lt;/p&gt;&lt;hr size=&quot;1&quot;&gt;&lt;p style=&quot;margin:0 0 0 4px;line-height:1.6;&quot;&gt;- appContext: AppContext&lt;/p&gt;&lt;hr size=&quot;1&quot;&gt;&lt;p style=&quot;margin:0 0 0 4px;line-height:1.6;&quot;&gt;- isProjectVisibleForApplicant(UserModel, BTOProjectModel): boolean&lt;br&gt;+ updateApplicationStatusToBooked(int): boolean&lt;br&gt;+ viewAvailableProjectsForApplicant(): void&lt;/p&gt;&lt;p style=&quot;margin:0 0 0 4px;line-height:1.6;&quot;&gt;+ getAvailableProjectsForApplicant() :&amp;nbsp;List&amp;lt;BTOProjectModel&amp;gt;&lt;br&gt;+ updateApplicationFlatType(int, FlatType, List&amp;lt;FlatType&amp;gt;): boolean&lt;br&gt;+ viewApplicationStatus(BTOApplicationModel): ApplicationStatus&lt;br&gt;+ generateReceipt(BTOApplicationModel): Receipt&lt;br&gt;+ approveApplicantApplication(BTOApplicationModel): Boolean&lt;br&gt;+ rejectApplication(BTOApplicationModel): void&lt;br&gt;+ updateApplicationStatus(BTOApplicationModel, ApplicationStatus): void&lt;br&gt;+ approveApplication(BTOApplicationModel): void&lt;br&gt;+ rejectApplicantWithdrawalApplication(BTOApplicationModel): boolean&lt;br&gt;+ viewApplicationByNRIC(int, String, BTOApplicationModel[]): boolean&lt;br&gt;+ rejectApplicantApplication(BTOApplicationModel): Boolean&lt;br&gt;+ approveApplicantWithdrawalApplication(BTOApplicationModel): boolean&lt;br&gt;+ applyToProject(ProjectRepo, Scanner, UserModel): Boolean&lt;/p&gt;" style="verticalAlign=top;align=left;overflow=fill;fontSize=14;fontFamily=Helvetica;html=1;rounded=0;shadow=0;comic=0;labelBackgroundColor=none;strokeWidth=1;" parent="1" vertex="1">
                    <mxGeometry x="1469" y="3729" width="492" height="472" as="geometry"/>
                </mxCell>
                <mxCell id="node22" value="&lt;p style=&quot;margin:0px;margin-top:4px;text-align:center;&quot;&gt;&lt;i&gt;&amp;lt;&amp;lt;enumeration&amp;gt;&amp;gt;&lt;/i&gt;&lt;br/&gt;&lt;b&gt;ApplicationStatus&lt;/b&gt;&lt;/p&gt;&lt;hr size=&quot;1&quot;/&gt;&lt;p style=&quot;margin:0 0 0 4px;line-height:1.6;&quot;&gt;+ ApplicationStatus(): &lt;/p&gt;&lt;hr size=&quot;1&quot;/&gt;&lt;p style=&quot;margin:0 0 0 4px;line-height:1.6;&quot;&gt;+ BOOKED: &lt;br/&gt;+ PENDING: &lt;br/&gt;+ WITHDRAWN: &lt;br/&gt;+ SUCCESSFUL: &lt;br/&gt;+ UNSUCCESSFUL: &lt;/p&gt;&lt;hr size=&quot;1&quot;/&gt;&lt;p style=&quot;margin:0 0 0 4px;line-height:1.6;&quot;&gt;+ values(): ApplicationStatus[]&lt;br/&gt;+ valueOf(String): ApplicationStatus&lt;/p&gt;" style="verticalAlign=top;align=left;overflow=fill;fontSize=14;fontFamily=Helvetica;html=1;rounded=0;shadow=0;comic=0;labelBackgroundColor=none;strokeWidth=1;" parent="1" vertex="1">
                    <mxGeometry x="3651" y="75" width="255" height="285" as="geometry"/>
                </mxCell>
                <mxCell id="node50" value="&lt;p style=&quot;margin:0px;margin-top:4px;text-align:center;&quot;&gt;&lt;b&gt;AuthController&lt;/b&gt;&lt;/p&gt;&lt;hr size=&quot;1&quot;/&gt;&lt;p style=&quot;margin:0 0 0 4px;line-height:1.6;&quot;&gt;+ AuthController(): &lt;/p&gt;&lt;hr size=&quot;1&quot;/&gt;&lt;p style=&quot;margin:0 0 0 4px;line-height:1.6;&quot;&gt;- authService: AuthService&lt;/p&gt;&lt;hr size=&quot;1&quot;/&gt;&lt;p style=&quot;margin:0 0 0 4px;line-height:1.6;&quot;&gt;+ isManager(UserModel): boolean&lt;br/&gt;+ isApplicant(UserModel): boolean&lt;br/&gt;+ isOfficer(UserModel): boolean&lt;/p&gt;" style="verticalAlign=top;align=left;overflow=fill;fontSize=14;fontFamily=Helvetica;html=1;rounded=0;shadow=0;comic=0;labelBackgroundColor=none;strokeWidth=1;" parent="1" vertex="1">
                    <mxGeometry x="3690" y="4371" width="247" height="189" as="geometry"/>
                </mxCell>
                <mxCell id="node27" value="&lt;p style=&quot;margin:0px;margin-top:4px;text-align:center;&quot;&gt;&lt;b&gt;AuthService&lt;/b&gt;&lt;/p&gt;&lt;hr size=&quot;1&quot;/&gt;&lt;p style=&quot;margin:0 0 0 4px;line-height:1.6;&quot;&gt;+ AuthService(): &lt;/p&gt;&lt;hr size=&quot;1&quot;/&gt;&lt;p style=&quot;margin:0 0 0 4px;line-height:1.6;&quot;&gt;+ isManager(UserModel): boolean&lt;br/&gt;+ isOfficer(UserModel): boolean&lt;br/&gt;+ isApplicant(UserModel): boolean&lt;/p&gt;" style="verticalAlign=top;align=left;overflow=fill;fontSize=14;fontFamily=Helvetica;html=1;rounded=0;shadow=0;comic=0;labelBackgroundColor=none;strokeWidth=1;" parent="1" vertex="1">
                    <mxGeometry x="3690" y="3894" width="247" height="148" as="geometry"/>
                </mxCell>
                <mxCell id="node39" value="&lt;p style=&quot;margin:0px;margin-top:4px;text-align:center;&quot;&gt;&lt;b&gt;BTOApplicationModel&lt;/b&gt;&lt;/p&gt;&lt;hr size=&quot;1&quot;/&gt;&lt;p style=&quot;margin:0 0 0 4px;line-height:1.6;&quot;&gt;+ BTOApplicationModel(UserModel, BTOProjectModel, FlatType): &lt;/p&gt;&lt;hr size=&quot;1&quot;/&gt;&lt;p style=&quot;margin:0 0 0 4px;line-height:1.6;&quot;&gt;- nextApplicationID: int&lt;br/&gt;- submissionDate: Date&lt;br/&gt;- withdrawalRequested: Boolean&lt;br/&gt;- applicantUser: UserModel&lt;br/&gt;- status: ApplicationStatus&lt;br/&gt;- applicationFlatType: FlatType&lt;br/&gt;- applicationID: int&lt;br/&gt;- BookedUnit: BookingDetailModel&lt;br/&gt;- project: BTOProjectModel&lt;/p&gt;&lt;hr size=&quot;1&quot;/&gt;&lt;p style=&quot;margin:0 0 0 4px;line-height:1.6;&quot;&gt;+ setFlatType(FlatType): void&lt;br/&gt;+ getFlatType(): FlatType&lt;br/&gt;+ getStatus(): ApplicationStatus&lt;br/&gt;+ getApplicantAge(): int&lt;br/&gt;+ setStatus(ApplicationStatus): boolean&lt;br/&gt;+ setWithdrawalRequested(boolean): boolean&lt;br/&gt;+ getApplicantNRIC(): String&lt;br/&gt;+ getApplicantName(): String&lt;br/&gt;+ getWithdrawalRequested(): boolean&lt;br/&gt;+ getApplicantUserID(): long&lt;br/&gt;+ getApplicantMaritalStatus(): boolean&lt;br/&gt;+ clearBookedUnit(): boolean&lt;br/&gt;+ getProjectID(): int&lt;br/&gt;+ getApplicationID(): int&lt;br/&gt;+ getSubmissionDate(): Date&lt;/p&gt;" style="verticalAlign=top;align=left;overflow=fill;fontSize=14;fontFamily=Helvetica;html=1;rounded=0;shadow=0;comic=0;labelBackgroundColor=none;strokeWidth=1;" parent="1" vertex="1">
                    <mxGeometry x="3324" y="1102" width="439" height="643" as="geometry"/>
                </mxCell>
                <mxCell id="node31" value="&lt;p style=&quot;margin:0px;margin-top:4px;text-align:center;&quot;&gt;&lt;b&gt;BTOProjectModel&lt;/b&gt;&lt;/p&gt;&lt;hr size=&quot;1&quot;&gt;&lt;p style=&quot;margin:0 0 0 4px;line-height:1.6;&quot;&gt;+ BTOProjectModel(String, Neighborhood, int, int, int, int,&lt;/p&gt;&lt;p style=&quot;margin:0 0 0 4px;line-height:1.6;&quot;&gt;&lt;span style=&quot;white-space: pre;&quot;&gt;&#x9;&lt;/span&gt;&lt;span style=&quot;white-space: pre;&quot;&gt;&#x9;&lt;/span&gt;&lt;span style=&quot;white-space: pre;&quot;&gt;&#x9;&lt;/span&gt;&lt;span style=&quot;white-space: pre;&quot;&gt;&#x9;&lt;/span&gt;LocalDate, LocalDate, int, int): &lt;/p&gt;&lt;hr size=&quot;1&quot;&gt;&lt;p style=&quot;margin:0 0 0 4px;line-height:1.6;&quot;&gt;- nextprojectID: int&lt;br&gt;- isVisible: boolean&lt;br&gt;- managingOfficerUsers: ArrayList&amp;lt;UserModel&amp;gt;&lt;br&gt;- managerUserID: int&lt;br&gt;- projectName: String&lt;br&gt;- projectID: int&lt;br&gt;- openingDate: LocalDate&lt;br&gt;- twoRoomCount: int&lt;br&gt;- threeRoomPrice: int&lt;br&gt;- neighborhood: Neighborhood&lt;br&gt;- maxManagingOfficer: int&lt;br&gt;- threeRoomCount: int&lt;br&gt;- twoRoomPrice: int&lt;br&gt;- closingDate: LocalDate&lt;/p&gt;&lt;hr size=&quot;1&quot;&gt;&lt;p style=&quot;margin:0 0 0 4px;line-height:1.6;&quot;&gt;+ setNeighborhood(Neighborhood): void&lt;br&gt;+ getThreeRoomCount(): int&lt;br&gt;+ setClosingDate(LocalDate): void&lt;br&gt;+ getClosingDate(): LocalDate&lt;br&gt;+ getProjectName(): String&lt;br&gt;+ getManagingOfficerUsers(): ArrayList&amp;lt;UserModel&amp;gt;&lt;br&gt;+ getProjectID(): int&lt;br&gt;+ setProjectName(String): void&lt;br&gt;+ setVisible(boolean): void&lt;br&gt;+ getMaxManagingOfficer(): int&lt;br&gt;+ getOpeningDate(): LocalDate&lt;br&gt;+ getTwoRoomCount(): int&lt;br&gt;+ setMaxManagingOfficer(int): void&lt;br&gt;+ getAvailableFlatTypes(): List&amp;lt;FlatType&amp;gt;&lt;br&gt;+ addManagingOfficerUser(UserModel): boolean&lt;br&gt;+ isManagingOfficer(UserModel): boolean&lt;br&gt;+ setManagerUserID(int): void&lt;br&gt;+ setThreeRoomCount(int): void&lt;br&gt;+ getManagerUserID(): int&lt;br&gt;+ removeManagingOfficerUser(UserModel): boolean&lt;br&gt;+ getNeighborhood(): Neighborhood&lt;br&gt;+ setTwoRoomCount(int): void&lt;br&gt;+ setOpeningDate(LocalDate): void&lt;br&gt;+ isVisible(): boolean&lt;br&gt;+ printAll(): void&lt;/p&gt;" style="verticalAlign=top;align=left;overflow=fill;fontSize=14;fontFamily=Helvetica;html=1;rounded=0;shadow=0;comic=0;labelBackgroundColor=none;strokeWidth=1;" parent="1" vertex="1">
                    <mxGeometry x="2295" y="1091" width="388" height="1003" as="geometry"/>
                </mxCell>
                <mxCell id="node41" value="&lt;p style=&quot;margin:0px;margin-top:4px;text-align:center;&quot;&gt;&lt;b&gt;BookingDetailModel&lt;/b&gt;&lt;/p&gt;&lt;hr size=&quot;1&quot;/&gt;&lt;p style=&quot;margin:0 0 0 4px;line-height:1.6;&quot;&gt;+ BookingDetailModel(FlatType): &lt;/p&gt;&lt;hr size=&quot;1&quot;/&gt;&lt;p style=&quot;margin:0 0 0 4px;line-height:1.6;&quot;&gt;- bookedFlatType: FlatType&lt;br/&gt;- bookingDate: Date&lt;/p&gt;" style="verticalAlign=top;align=left;overflow=fill;fontSize=14;fontFamily=Helvetica;html=1;rounded=0;shadow=0;comic=0;labelBackgroundColor=none;strokeWidth=1;" parent="1" vertex="1">
                    <mxGeometry x="3310" y="817" width="239" height="122" as="geometry"/>
                </mxCell>
                <mxCell id="node43" value="&lt;p style=&quot;margin:0px;margin-top:4px;text-align:center;&quot;&gt;&lt;b&gt;CSVReader&lt;/b&gt;&lt;/p&gt;&lt;hr size=&quot;1&quot;/&gt;&lt;p style=&quot;margin:0 0 0 4px;line-height:1.6;&quot;&gt;+ CSVReader(): &lt;/p&gt;&lt;hr size=&quot;1&quot;/&gt;&lt;p style=&quot;margin:0 0 0 4px;line-height:1.6;&quot;&gt;+ readUserList(String): ArrayList&amp;lt;List&amp;lt;Object&amp;gt;&amp;gt;&lt;br/&gt;+ readProjectList(String): ArrayList&amp;lt;List&amp;lt;Object&amp;gt;&amp;gt;&lt;br/&gt;+ printCSVFormat(ArrayList&amp;lt;List&amp;lt;Object&amp;gt;&amp;gt;): void&lt;/p&gt;" style="verticalAlign=top;align=left;overflow=fill;fontSize=14;fontFamily=Helvetica;html=1;rounded=0;shadow=0;comic=0;labelBackgroundColor=none;strokeWidth=1;" parent="1" vertex="1">
                    <mxGeometry x="3690" y="2604" width="345" height="148" as="geometry"/>
                </mxCell>
                <mxCell id="node5" value="&lt;p style=&quot;margin:0px;margin-top:4px;text-align:center;&quot;&gt;&lt;b&gt;EnquiryController&lt;/b&gt;&lt;/p&gt;&lt;hr size=&quot;1&quot;/&gt;&lt;p style=&quot;margin:0 0 0 4px;line-height:1.6;&quot;&gt;+ EnquiryController(AppContext): &lt;/p&gt;&lt;hr size=&quot;1&quot;/&gt;&lt;p style=&quot;margin:0 0 0 4px;line-height:1.6;&quot;&gt;- enquiryService: EnquiryService&lt;/p&gt;&lt;hr size=&quot;1&quot;/&gt;&lt;p style=&quot;margin:0 0 0 4px;line-height:1.6;&quot;&gt;+ deleteEnquiry(int): boolean&lt;br/&gt;+ getAllEnquiries(): List&amp;lt;EnquiryModel&amp;gt;&lt;br/&gt;+ viewEnquiry(int): boolean&lt;br/&gt;+ editEnquiryResponse(int, String): boolean&lt;br/&gt;+ submitEnquiry(String, int, String): boolean&lt;/p&gt;" style="verticalAlign=top;align=left;overflow=fill;fontSize=14;fontFamily=Helvetica;html=1;rounded=0;shadow=0;comic=0;labelBackgroundColor=none;strokeWidth=1;" parent="1" vertex="1">
                    <mxGeometry x="1147" y="4359" width="303" height="221" as="geometry"/>
                </mxCell>
                <mxCell id="node8" value="&lt;p style=&quot;margin:0px;margin-top:4px;text-align:center;&quot;&gt;&lt;b&gt;EnquiryModel&lt;/b&gt;&lt;/p&gt;&lt;hr size=&quot;1&quot;&gt;&lt;p style=&quot;margin:0 0 0 4px;line-height:1.6;&quot;&gt;+ EnquiryModel(String, int, String): &lt;/p&gt;&lt;hr size=&quot;1&quot;&gt;&lt;p style=&quot;margin:0 0 0 4px;line-height:1.6;&quot;&gt;- submittedByApplicantNRIC: String&lt;br&gt;- submissionDate: Date&lt;br&gt;- enquiryResponse: EnquiryResponseModel&lt;br&gt;- enquiryID: int&lt;br&gt;- projectID: int&lt;br&gt;- nextEnquiryID: int&lt;br&gt;- enquiryText: String&lt;/p&gt;&lt;hr size=&quot;1&quot;&gt;&lt;p style=&quot;margin:0 0 0 4px;line-height:1.6;&quot;&gt;+ getEnquiryText(): String&lt;br&gt;+ editEnquiry(String): boolean&lt;br&gt;+ getID(): int&lt;br&gt;+ getApplicantNRIC(): String&lt;br&gt;+ replyEnquiry(String, int): void&lt;br&gt;+ getStatus(): boolean&lt;br&gt;+ getProjectID(): int&lt;br&gt;+ getFormattedEnquiry(): String&lt;/p&gt;" style="verticalAlign=top;align=left;overflow=fill;fontSize=14;fontFamily=Helvetica;html=1;rounded=0;shadow=0;comic=0;labelBackgroundColor=none;strokeWidth=1;" parent="1" vertex="1">
                    <mxGeometry x="1495" y="1645" width="304" height="427" as="geometry"/>
                </mxCell>
                <mxCell id="node33" value="&lt;p style=&quot;margin:0px;margin-top:4px;text-align:center;&quot;&gt;&lt;b&gt;EnquiryRepo&lt;/b&gt;&lt;/p&gt;&lt;hr size=&quot;1&quot;/&gt;&lt;p style=&quot;margin:0 0 0 4px;line-height:1.6;&quot;&gt;+ EnquiryRepo(): &lt;/p&gt;&lt;hr size=&quot;1&quot;/&gt;&lt;p style=&quot;margin:0 0 0 4px;line-height:1.6;&quot;&gt;- enquiries: List&amp;lt;EnquiryModel&amp;gt;&lt;/p&gt;&lt;hr size=&quot;1&quot;/&gt;&lt;p style=&quot;margin:0 0 0 4px;line-height:1.6;&quot;&gt;+ save(EnquiryModel): void&lt;br/&gt;+ findByProjectId(int): List&amp;lt;EnquiryModel&amp;gt;&lt;br/&gt;+ findByID(Integer): EnquiryModel&lt;br/&gt;+ findAll(): List&amp;lt;EnquiryModel&amp;gt;&lt;br/&gt;+ saveEnquiry(EnquiryModel): EnquiryModel&lt;br/&gt;+ findByApplicantNRIC(String): List&amp;lt;EnquiryModel&amp;gt;&lt;br/&gt;+ findByID(int): EnquiryModel&lt;br/&gt;+ delete(Integer): boolean&lt;/p&gt;" style="verticalAlign=top;align=left;overflow=fill;fontSize=14;fontFamily=Helvetica;html=1;rounded=0;shadow=0;comic=0;labelBackgroundColor=none;strokeWidth=1;" parent="1" vertex="1">
                    <mxGeometry x="1471" y="2752" width="351" height="288" as="geometry"/>
                </mxCell>
                <mxCell id="node20" value="&lt;p style=&quot;margin:0px;margin-top:4px;text-align:center;&quot;&gt;&lt;b&gt;EnquiryResponseModel&lt;/b&gt;&lt;/p&gt;&lt;hr size=&quot;1&quot;&gt;&lt;p style=&quot;margin:0 0 0 4px;line-height:1.6;&quot;&gt;~ EnquiryResponseModel(String, int, int): &lt;/p&gt;&lt;hr size=&quot;1&quot;&gt;&lt;p style=&quot;margin:0 0 0 4px;line-height:1.6;&quot;&gt;- respondingOfficerUserID: int&lt;br&gt;- responseDate: Date&lt;br&gt;- nextResponseId: int&lt;br&gt;- enquiryID: int&lt;br&gt;- responseID: int&lt;br&gt;- responseText: String&lt;/p&gt;&lt;hr size=&quot;1&quot;&gt;&lt;p style=&quot;margin:0 0 0 4px;line-height:1.6;&quot;&gt;+ getResponseText(): String&lt;br&gt;+ getOfficerUserID(): int&lt;br&gt;+ getResponseID(): int&lt;br&gt;+ getResponseDate(): Date&lt;/p&gt;" style="verticalAlign=top;align=left;overflow=fill;fontSize=14;fontFamily=Helvetica;html=1;rounded=0;shadow=0;comic=0;labelBackgroundColor=none;strokeWidth=1;" parent="1" vertex="1">
                    <mxGeometry x="1502" y="1226" width="289" height="314" as="geometry"/>
                </mxCell>
                <mxCell id="node4" value="&lt;p style=&quot;margin:0px;margin-top:4px;text-align:center;&quot;&gt;&lt;b&gt;EnquiryService&lt;/b&gt;&lt;/p&gt;&lt;hr size=&quot;1&quot;/&gt;&lt;p style=&quot;margin:0 0 0 4px;line-height:1.6;&quot;&gt;+ EnquiryService(AppContext): &lt;/p&gt;&lt;hr size=&quot;1&quot;/&gt;&lt;p style=&quot;margin:0 0 0 4px;line-height:1.6;&quot;&gt;- appContext: AppContext&lt;/p&gt;&lt;hr size=&quot;1&quot;/&gt;&lt;p style=&quot;margin:0 0 0 4px;line-height:1.6;&quot;&gt;+ getAllEnquiries(): List&amp;lt;EnquiryModel&amp;gt;&lt;br/&gt;+ viewEnquiry(int): boolean&lt;br/&gt;+ editEnquiryResponse(int, String): boolean&lt;br/&gt;+ submitEnquiry(String, int, String): boolean&lt;br/&gt;+ deleteEnquiry(int): boolean&lt;/p&gt;" style="verticalAlign=top;align=left;overflow=fill;fontSize=14;fontFamily=Helvetica;html=1;rounded=0;shadow=0;comic=0;labelBackgroundColor=none;strokeWidth=1;" parent="1" vertex="1">
                    <mxGeometry x="1147" y="3858" width="303" height="222" as="geometry"/>
                </mxCell>
                <mxCell id="node12" value="&lt;p style=&quot;margin:0px;margin-top:4px;text-align:center;&quot;&gt;&lt;i&gt;&amp;lt;&amp;lt;enumeration&amp;gt;&amp;gt;&lt;/i&gt;&lt;br/&gt;&lt;b&gt;FlatType&lt;/b&gt;&lt;/p&gt;&lt;hr size=&quot;1&quot;/&gt;&lt;p style=&quot;margin:0 0 0 4px;line-height:1.6;&quot;&gt;+ FlatType(): &lt;/p&gt;&lt;hr size=&quot;1&quot;/&gt;&lt;p style=&quot;margin:0 0 0 4px;line-height:1.6;&quot;&gt;+ TWO_ROOM: &lt;br/&gt;+ THREE_ROOM: &lt;/p&gt;&lt;hr size=&quot;1&quot;/&gt;&lt;p style=&quot;margin:0 0 0 4px;line-height:1.6;&quot;&gt;+ values(): FlatType[]&lt;br/&gt;+ valueOf(String): FlatType&lt;/p&gt;" style="verticalAlign=top;align=left;overflow=fill;fontSize=14;fontFamily=Helvetica;html=1;rounded=0;shadow=0;comic=0;labelBackgroundColor=none;strokeWidth=1;" parent="1" vertex="1">
                    <mxGeometry x="2941" y="60" width="199" height="200" as="geometry"/>
                </mxCell>
                <mxCell id="node26" value="&lt;p style=&quot;margin:0px;margin-top:4px;text-align:center;&quot;&gt;&lt;b&gt;HDBManagerModel&lt;/b&gt;&lt;/p&gt;&lt;hr size=&quot;1&quot;/&gt;&lt;p style=&quot;margin:0 0 0 4px;line-height:1.6;&quot;&gt;+ HDBManagerModel(String, String, int, String, String): &lt;/p&gt;&lt;hr size=&quot;1&quot;/&gt;&lt;p style=&quot;margin:0 0 0 4px;line-height:1.6;&quot;&gt;- projectID: Integer&lt;/p&gt;&lt;hr size=&quot;1&quot;/&gt;&lt;p style=&quot;margin:0 0 0 4px;line-height:1.6;&quot;&gt;+ getMenuOptions(): List&amp;lt;String&amp;gt;&lt;br/&gt;+ setProjectID(int): void&lt;br/&gt;+ deleteProjectID(): void&lt;br/&gt;+ getProjectID(): Integer&lt;/p&gt;" style="verticalAlign=top;align=left;overflow=fill;fontSize=14;fontFamily=Helvetica;html=1;rounded=0;shadow=0;comic=0;labelBackgroundColor=none;strokeWidth=1;" parent="1" vertex="1">
                    <mxGeometry x="1010" y="520" width="372" height="200" as="geometry"/>
                </mxCell>
                <mxCell id="node13" value="&lt;p style=&quot;margin:0px;margin-top:4px;text-align:center;&quot;&gt;&lt;b&gt;HDBManagerView&lt;/b&gt;&lt;/p&gt;&lt;hr size=&quot;1&quot;&gt;&lt;p style=&quot;margin:0 0 0 4px;line-height:1.6;&quot;&gt;+ HDBManagerView(): &lt;/p&gt;&lt;hr size=&quot;1&quot;&gt;&lt;p style=&quot;margin:0 0 0 4px;line-height:1.6;&quot;&gt;- officerRegistrationController: OfficerRegistrationController&lt;br&gt;- projectManagementController: ProjectManagementController&lt;br&gt;- applicationController: ApplicationController&lt;br&gt;- enquiryController: EnquiryController&lt;br&gt;- reportingController: ReportingController&lt;br&gt;- projectController: ProjectController&lt;br&gt;- userController: UserController&lt;br&gt;- projectView: ProjectView&lt;/p&gt;&lt;hr size=&quot;1&quot;&gt;&lt;p style=&quot;margin:0 0 0 4px;line-height:1.6;&quot;&gt;&lt;span style=&quot;color: rgb(63, 63, 63);&quot;&gt;+ HDBManagerMenu(AppContext): void&lt;/span&gt;&lt;/p&gt;&lt;p style=&quot;margin:0 0 0 4px;line-height:1.6;&quot;&gt;- getBTOProjectByUserIDMenu(AppContext): void&lt;br&gt;- toggleProjectVisibilityMenu(AppContext): void&lt;br&gt;- deleteBTOProjectMenu(AppContext): void&lt;br&gt;- rejectApplicationWithdrawalMenu(AppContext): void&lt;br&gt;- rejectBTOApplicationMenu(AppContext): void&lt;br&gt;- approveApplicationWithdrawalMenu(AppContext): void&lt;br&gt;- editEnquiryMenu(AppContext): void&lt;br&gt;- generateReportMenu(AppContext): void&lt;br&gt;- createProjectMenu(AppContext): void&lt;br&gt;- getAllEnquiryMenu(AppContext): void&lt;br&gt;- editBTOProjectMenu(AppContext): void&lt;br&gt;- printProjectsManagedByUser(List&amp;lt;BTOProjectModel&amp;gt;): void&lt;br&gt;- getAllBTOProjectMenu(AppContext): void&lt;br&gt;- rejectOfficerRegistrationMenu(AppContext): void&lt;br&gt;- approveBTOApplicationMenu(AppContext): void&lt;br&gt;- approveOfficerRegistrationMenu(AppContext): void&lt;/p&gt;" style="verticalAlign=top;align=left;overflow=fill;fontSize=14;fontFamily=Helvetica;html=1;rounded=0;shadow=0;comic=0;labelBackgroundColor=none;strokeWidth=1;" parent="1" vertex="1">
                    <mxGeometry x="1597" y="4870" width="422" height="667" as="geometry"/>
                </mxCell>
                <mxCell id="node47" value="&lt;p style=&quot;margin:0px;margin-top:4px;text-align:center;&quot;&gt;&lt;b&gt;HDBOfficerModel&lt;/b&gt;&lt;/p&gt;&lt;hr size=&quot;1&quot;/&gt;&lt;p style=&quot;margin:0 0 0 4px;line-height:1.6;&quot;&gt;+ HDBOfficerModel(String, String, int, String, String): &lt;/p&gt;&lt;hr size=&quot;1&quot;/&gt;&lt;p style=&quot;margin:0 0 0 4px;line-height:1.6;&quot;&gt;- registrationStatus: boolean&lt;br/&gt;- bookedFlatType: FlatType&lt;br/&gt;- projectID: int&lt;br/&gt;- bookedProject: BTOProjectModel&lt;/p&gt;&lt;hr size=&quot;1&quot;/&gt;&lt;p style=&quot;margin:0 0 0 4px;line-height:1.6;&quot;&gt;+ getProjectID(): int&lt;br/&gt;+ getRegistrationStatus(): boolean&lt;br/&gt;+ setProjectID(int): void&lt;br/&gt;+ getMenuOptions(): List&amp;lt;String&amp;gt;&lt;/p&gt;" style="verticalAlign=top;align=left;overflow=fill;fontSize=14;fontFamily=Helvetica;html=1;rounded=0;shadow=0;comic=0;labelBackgroundColor=none;strokeWidth=1;" parent="1" vertex="1">
                    <mxGeometry x="2771" y="1669" width="360" height="271" as="geometry"/>
                </mxCell>
                <mxCell id="node1" value="&lt;p style=&quot;margin:0px;margin-top:4px;text-align:center;&quot;&gt;&lt;b&gt;HDBOfficerView&lt;/b&gt;&lt;/p&gt;&lt;hr size=&quot;1&quot;/&gt;&lt;p style=&quot;margin:0 0 0 4px;line-height:1.6;&quot;&gt;+ HDBOfficerView(): &lt;/p&gt;&lt;hr size=&quot;1&quot;/&gt;&lt;p style=&quot;margin:0 0 0 4px;line-height:1.6;&quot;&gt;- projectView: ProjectView&lt;br/&gt;- officerRegistrationController: OfficerRegistrationController&lt;br/&gt;- projectController: ProjectController&lt;br/&gt;- userController: UserController&lt;br/&gt;- enquiryController: EnquiryController&lt;br/&gt;- applicationController: ApplicationController&lt;/p&gt;&lt;hr size=&quot;1&quot;/&gt;&lt;p style=&quot;margin:0 0 0 4px;line-height:1.6;&quot;&gt;+ HDBOfficerMenu(AppContext): void&lt;br/&gt;- viewMyEnquiriesMenu(AppContext): void&lt;br/&gt;- submitEnquiryMenu(AppContext): void&lt;br/&gt;- generateReceiptMenu(AppContext): void&lt;br/&gt;- generateApplicationReceipt(AppContext): void&lt;br/&gt;- viewRegistrationStatusMenu(AppContext): void&lt;br/&gt;- viewApplicationStatusMenu(AppContext): void&lt;br/&gt;- registerForProjectMenu(AppContext): void&lt;br/&gt;- manageEnquiriesMenu(AppContext): void&lt;br/&gt;- viewAndUpdateBookings(AppContext): void&lt;br/&gt;- applyForProjectMenu(AppContext): void&lt;/p&gt;" style="verticalAlign=top;align=left;overflow=fill;fontSize=14;fontFamily=Helvetica;html=1;rounded=0;shadow=0;comic=0;labelBackgroundColor=none;strokeWidth=1;" parent="1" vertex="1">
                    <mxGeometry x="388" y="4966" width="404" height="475" as="geometry"/>
                </mxCell>
                <mxCell id="node25" value="&lt;p style=&quot;margin:0px;margin-top:4px;text-align:center;&quot;&gt;&lt;b&gt;InitializationController&lt;/b&gt;&lt;/p&gt;&lt;hr size=&quot;1&quot;/&gt;&lt;p style=&quot;margin:0 0 0 4px;line-height:1.6;&quot;&gt;+ InitializationController(): &lt;/p&gt;&lt;hr size=&quot;1&quot;/&gt;&lt;p style=&quot;margin:0 0 0 4px;line-height:1.6;&quot;&gt;- initializationService: InitializationService&lt;/p&gt;&lt;hr size=&quot;1&quot;/&gt;&lt;p style=&quot;margin:0 0 0 4px;line-height:1.6;&quot;&gt;+ initializeUsers(UserRepo): void&lt;br/&gt;+ initializeProjects(ProjectRepo, UserRepo, AuthController): void&lt;/p&gt;" style="verticalAlign=top;align=left;overflow=fill;fontSize=14;fontFamily=Helvetica;html=1;rounded=0;shadow=0;comic=0;labelBackgroundColor=none;strokeWidth=1;" parent="1" vertex="1">
                    <mxGeometry x="3181" y="4371" width="429" height="159" as="geometry"/>
                </mxCell>
                <mxCell id="node10" value="&lt;p style=&quot;margin:0px;margin-top:4px;text-align:center;&quot;&gt;&lt;b&gt;InitializationService&lt;/b&gt;&lt;/p&gt;&lt;hr size=&quot;1&quot;&gt;&lt;p style=&quot;margin:0 0 0 4px;line-height:1.6;&quot;&gt;+ InitializationService(): &lt;/p&gt;&lt;hr size=&quot;1&quot;&gt;&lt;p style=&quot;margin:0 0 0 4px;line-height:1.6;&quot;&gt;+ initializeProjects(ProjectRepo, UserRepo, AuthController): void&lt;br&gt;- addProjectByArrayList(ArrayList&amp;lt;List&amp;lt;Object&amp;gt;&amp;gt;, ProjectRepo,&amp;nbsp;&lt;/p&gt;&lt;p style=&quot;margin:0 0 0 4px;line-height:1.6;&quot;&gt;&lt;span style=&quot;white-space: pre;&quot;&gt;&#x9;&lt;/span&gt;&lt;span style=&quot;white-space: pre;&quot;&gt;&#x9;&lt;/span&gt;&lt;span style=&quot;white-space: pre;&quot;&gt;&#x9;&lt;/span&gt;&lt;span style=&quot;white-space: pre;&quot;&gt;&#x9;&lt;/span&gt;&lt;span style=&quot;white-space: pre;&quot;&gt;&#x9;&lt;/span&gt;UserRepo, AuthController): void&lt;br&gt;+ initializeUsers(UserRepo): void&lt;br&gt;- addUserbyArrayList(ArrayList&amp;lt;List&amp;lt;Object&amp;gt;&amp;gt;, UserRole, UserRepo): void&lt;/p&gt;" style="verticalAlign=top;align=left;overflow=fill;fontSize=14;fontFamily=Helvetica;html=1;rounded=0;shadow=0;comic=0;labelBackgroundColor=none;strokeWidth=1;" parent="1" vertex="1">
                    <mxGeometry x="3160" y="3894" width="472" height="196" as="geometry"/>
                </mxCell>
                <mxCell id="node29" value="&lt;p style=&quot;margin:0px;margin-top:4px;text-align:center;&quot;&gt;&lt;b&gt;Main&lt;/b&gt;&lt;/p&gt;&lt;hr size=&quot;1&quot;/&gt;&lt;p style=&quot;margin:0 0 0 4px;line-height:1.6;&quot;&gt;+ Main(): &lt;/p&gt;&lt;hr size=&quot;1&quot;/&gt;&lt;p style=&quot;margin:0 0 0 4px;line-height:1.6;&quot;&gt;+ main(String[]): void&lt;/p&gt;" style="verticalAlign=top;align=left;overflow=fill;fontSize=14;fontFamily=Helvetica;html=1;rounded=0;shadow=0;comic=0;labelBackgroundColor=none;strokeWidth=1;" parent="1" vertex="1">
                    <mxGeometry x="3078" y="4970" width="166" height="110" as="geometry"/>
                </mxCell>
                <mxCell id="node21" value="&lt;p style=&quot;margin:0px;margin-top:4px;text-align:center;&quot;&gt;&lt;b&gt;NRICValidator&lt;/b&gt;&lt;/p&gt;&lt;hr size=&quot;1&quot;/&gt;&lt;p style=&quot;margin:0 0 0 4px;line-height:1.6;&quot;&gt;+ NRICValidator(): &lt;/p&gt;&lt;hr size=&quot;1&quot;/&gt;&lt;p style=&quot;margin:0 0 0 4px;line-height:1.6;&quot;&gt;+ isValidNRIC(String): boolean&lt;br/&gt;+ formatNRIC(String): String&lt;/p&gt;" style="verticalAlign=top;align=left;overflow=fill;fontSize=14;fontFamily=Helvetica;html=1;rounded=0;shadow=0;comic=0;labelBackgroundColor=none;strokeWidth=1;" parent="1" vertex="1">
                    <mxGeometry x="3742" y="2790" width="220" height="122" as="geometry"/>
                </mxCell>
                <mxCell id="node9" value="&lt;p style=&quot;margin:0px;margin-top:4px;text-align:center;&quot;&gt;&lt;i&gt;&amp;lt;&amp;lt;enumeration&amp;gt;&amp;gt;&lt;/i&gt;&lt;br/&gt;&lt;b&gt;Neighborhood&lt;/b&gt;&lt;/p&gt;&lt;hr size=&quot;1&quot;/&gt;&lt;p style=&quot;margin:0 0 0 4px;line-height:1.6;&quot;&gt;+ Neighborhood(): &lt;/p&gt;&lt;hr size=&quot;1&quot;/&gt;&lt;p style=&quot;margin:0 0 0 4px;line-height:1.6;&quot;&gt;+ YISHUN: &lt;br/&gt;+ CONEY_ISLAND: &lt;br/&gt;+ CHANGI_VILLAGE: &lt;br/&gt;+ SIMEI: &lt;br/&gt;+ WOODLANDS: &lt;br/&gt;+ PULAU_UBIN: &lt;/p&gt;&lt;hr size=&quot;1&quot;/&gt;&lt;p style=&quot;margin:0 0 0 4px;line-height:1.6;&quot;&gt;+ valueOf(String): Neighborhood&lt;br/&gt;+ values(): Neighborhood[]&lt;/p&gt;" style="verticalAlign=top;align=left;overflow=fill;fontSize=14;fontFamily=Helvetica;html=1;rounded=0;shadow=0;comic=0;labelBackgroundColor=none;strokeWidth=1;" parent="1" vertex="1">
                    <mxGeometry x="2024" y="59" width="235" height="291" as="geometry"/>
                </mxCell>
                <mxCell id="node14" value="&lt;p style=&quot;margin:0px;margin-top:4px;text-align:center;&quot;&gt;&lt;b&gt;OfficerRegistrationController&lt;/b&gt;&lt;/p&gt;&lt;hr size=&quot;1&quot;/&gt;&lt;p style=&quot;margin:0 0 0 4px;line-height:1.6;&quot;&gt;+ OfficerRegistrationController(AppContext): &lt;/p&gt;&lt;hr size=&quot;1&quot;/&gt;&lt;p style=&quot;margin:0 0 0 4px;line-height:1.6;&quot;&gt;- officerRegistrationService: OfficerRegistrationService&lt;/p&gt;&lt;hr size=&quot;1&quot;/&gt;&lt;p style=&quot;margin:0 0 0 4px;line-height:1.6;&quot;&gt;+ rejectRegistration(OfficerRegistrationModel): boolean&lt;br/&gt;+ registerForProject(): Boolean&lt;br/&gt;+ approveRegistration(OfficerRegistrationModel): boolean&lt;/p&gt;" style="verticalAlign=top;align=left;overflow=fill;fontSize=14;fontFamily=Helvetica;html=1;rounded=0;shadow=0;comic=0;labelBackgroundColor=none;strokeWidth=1;" parent="1" vertex="1">
                    <mxGeometry x="390" y="4383" width="391" height="187" as="geometry"/>
                </mxCell>
                <mxCell id="node0" value="&lt;p style=&quot;margin:0px;margin-top:4px;text-align:center;&quot;&gt;&lt;b&gt;OfficerRegistrationModel&lt;/b&gt;&lt;/p&gt;&lt;hr size=&quot;1&quot;&gt;&lt;p style=&quot;margin:0 0 0 4px;line-height:1.6;&quot;&gt;+ OfficerRegistrationModel(UserModel, int): &lt;/p&gt;&lt;hr size=&quot;1&quot;&gt;&lt;p style=&quot;margin:0 0 0 4px;line-height:1.6;&quot;&gt;- nextRegistrationID: int&lt;br&gt;- projectID: int&lt;br&gt;- status: OfficerRegistrationStatus&lt;br&gt;- registrationID: int&lt;br&gt;- officer: UserModel&lt;/p&gt;&lt;hr size=&quot;1&quot;&gt;&lt;p style=&quot;margin:0 0 0 4px;line-height:1.6;&quot;&gt;+ getRegistrationID(): int&lt;br&gt;+ getUserID(): int&lt;br&gt;+ getStatus(): OfficerRegistrationStatus&lt;br&gt;+ setStatus(OfficerRegistrationStatus): void&lt;br&gt;+ getProjectID(): int&lt;br&gt;+ getOfficerName(): String&lt;br&gt;+ getOfficerUser(): UserModel&lt;/p&gt;" style="verticalAlign=top;align=left;overflow=fill;fontSize=14;fontFamily=Helvetica;html=1;rounded=0;shadow=0;comic=0;labelBackgroundColor=none;strokeWidth=1;" parent="1" vertex="1">
                    <mxGeometry x="1935" y="1178" width="306" height="355" as="geometry"/>
                </mxCell>
                <mxCell id="node19" value="&lt;p style=&quot;margin:0px;margin-top:4px;text-align:center;&quot;&gt;&lt;b&gt;OfficerRegistrationRepo&lt;/b&gt;&lt;/p&gt;&lt;hr size=&quot;1&quot;/&gt;&lt;p style=&quot;margin:0 0 0 4px;line-height:1.6;&quot;&gt;+ OfficerRegistrationRepo(): &lt;/p&gt;&lt;hr size=&quot;1&quot;/&gt;&lt;p style=&quot;margin:0 0 0 4px;line-height:1.6;&quot;&gt;- applications: List&amp;lt;OfficerRegistrationModel&amp;gt;&lt;/p&gt;&lt;hr size=&quot;1&quot;/&gt;&lt;p style=&quot;margin:0 0 0 4px;line-height:1.6;&quot;&gt;+ findAll(): List&amp;lt;OfficerRegistrationModel&amp;gt;&lt;br/&gt;+ save(OfficerRegistrationModel): void&lt;br/&gt;+ findbyUserID(long): Optional&amp;lt;OfficerRegistrationModel&amp;gt;&lt;br/&gt;+ findActiveByOfficerID(String): Optional&amp;lt;OfficerRegistrationModel&amp;gt;&lt;br/&gt;+ delete(Long): boolean&lt;br/&gt;+ findByID(Long): OfficerRegistrationModel&lt;br/&gt;+ findByProjectID(String): List&amp;lt;OfficerRegistrationModel&amp;gt;&lt;/p&gt;" style="verticalAlign=top;align=left;overflow=fill;fontSize=14;fontFamily=Helvetica;html=1;rounded=0;shadow=0;comic=0;labelBackgroundColor=none;strokeWidth=1;" parent="1" vertex="1">
                    <mxGeometry x="1837" y="2764" width="455" height="266" as="geometry"/>
                </mxCell>
                <mxCell id="node6" value="&lt;p style=&quot;margin:0px;margin-top:4px;text-align:center;&quot;&gt;&lt;b&gt;OfficerRegistrationService&lt;/b&gt;&lt;/p&gt;&lt;hr size=&quot;1&quot;/&gt;&lt;p style=&quot;margin:0 0 0 4px;line-height:1.6;&quot;&gt;+ OfficerRegistrationService(AppContext): &lt;/p&gt;&lt;hr size=&quot;1&quot;/&gt;&lt;p style=&quot;margin:0 0 0 4px;line-height:1.6;&quot;&gt;- appContext: AppContext&lt;/p&gt;&lt;hr size=&quot;1&quot;/&gt;&lt;p style=&quot;margin:0 0 0 4px;line-height:1.6;&quot;&gt;+ registerForProject(): boolean&lt;br/&gt;+ rejectRegistration(OfficerRegistrationModel): boolean&lt;br/&gt;+ approveRegistration(OfficerRegistrationModel): boolean&lt;/p&gt;" style="verticalAlign=top;align=left;overflow=fill;fontSize=14;fontFamily=Helvetica;html=1;rounded=0;shadow=0;comic=0;labelBackgroundColor=none;strokeWidth=1;" parent="1" vertex="1">
                    <mxGeometry x="390" y="3882" width="391" height="178" as="geometry"/>
                </mxCell>
                <mxCell id="node34" value="&lt;p style=&quot;margin:0px;margin-top:4px;text-align:center;&quot;&gt;&lt;i&gt;&amp;lt;&amp;lt;enumeration&amp;gt;&amp;gt;&lt;/i&gt;&lt;br/&gt;&lt;b&gt;OfficerRegistrationStatus&lt;/b&gt;&lt;/p&gt;&lt;hr size=&quot;1&quot;/&gt;&lt;p style=&quot;margin:0 0 0 4px;line-height:1.6;&quot;&gt;+ OfficerRegistrationStatus(): &lt;/p&gt;&lt;hr size=&quot;1&quot;/&gt;&lt;p style=&quot;margin:0 0 0 4px;line-height:1.6;&quot;&gt;+ APPROVED: &lt;br/&gt;+ REJECTED: &lt;br/&gt;+ PENDING: &lt;/p&gt;&lt;hr size=&quot;1&quot;/&gt;&lt;p style=&quot;margin:0 0 0 4px;line-height:1.6;&quot;&gt;+ valueOf(String): OfficerRegistrationStatus&lt;br/&gt;+ values(): OfficerRegistrationStatus[]&lt;/p&gt;" style="verticalAlign=top;align=left;overflow=fill;fontSize=14;fontFamily=Helvetica;html=1;rounded=0;shadow=0;comic=0;labelBackgroundColor=none;strokeWidth=1;" parent="1" vertex="1">
                    <mxGeometry x="2522" y="63" width="303" height="227" as="geometry"/>
                </mxCell>
                <mxCell id="node46" value="&lt;p style=&quot;margin:0px;margin-top:4px;text-align:center;&quot;&gt;&lt;b&gt;PasswordValidator&lt;/b&gt;&lt;/p&gt;&lt;hr size=&quot;1&quot;/&gt;&lt;p style=&quot;margin:0 0 0 4px;line-height:1.6;&quot;&gt;+ PasswordValidator(): &lt;/p&gt;&lt;hr size=&quot;1&quot;/&gt;&lt;p style=&quot;margin:0 0 0 4px;line-height:1.6;&quot;&gt;- MIN_LENGTH: int&lt;br/&gt;- SPECIAL_CHARACTERS: String&lt;/p&gt;&lt;hr size=&quot;1&quot;/&gt;&lt;p style=&quot;margin:0 0 0 4px;line-height:1.6;&quot;&gt;+ getValidationMessages(String): List&amp;lt;String&amp;gt;&lt;br/&gt;+ isValid(String): boolean&lt;/p&gt;" style="verticalAlign=top;align=left;overflow=fill;fontSize=14;fontFamily=Helvetica;html=1;rounded=0;shadow=0;comic=0;labelBackgroundColor=none;strokeWidth=1;" parent="1" vertex="1">
                    <mxGeometry x="3703" y="2380" width="319" height="189" as="geometry"/>
                </mxCell>
                <mxCell id="node35" value="&lt;p style=&quot;margin:0px;margin-top:4px;text-align:center;&quot;&gt;&lt;b&gt;ProjectController&lt;/b&gt;&lt;/p&gt;&lt;hr size=&quot;1&quot;/&gt;&lt;p style=&quot;margin:0 0 0 4px;line-height:1.6;&quot;&gt;+ ProjectController(AppContext): &lt;/p&gt;&lt;hr size=&quot;1&quot;/&gt;&lt;p style=&quot;margin:0 0 0 4px;line-height:1.6;&quot;&gt;- projectService: ProjectService&lt;/p&gt;&lt;hr size=&quot;1&quot;/&gt;&lt;p style=&quot;margin:0 0 0 4px;line-height:1.6;&quot;&gt;+ viewProjectByID(int): void&lt;br/&gt;+ viewManagingProject(): BTOProjectModel&lt;/p&gt;" style="verticalAlign=top;align=left;overflow=fill;fontSize=14;fontFamily=Helvetica;html=1;rounded=0;shadow=0;comic=0;labelBackgroundColor=none;strokeWidth=1;" parent="1" vertex="1">
                    <mxGeometry x="1982" y="4395" width="304" height="155" as="geometry"/>
                </mxCell>
                <mxCell id="node15" value="&lt;p style=&quot;margin:0px;margin-top:4px;text-align:center;&quot;&gt;&lt;b&gt;ProjectManagementController&lt;/b&gt;&lt;/p&gt;&lt;hr size=&quot;1&quot;/&gt;&lt;p style=&quot;margin:0 0 0 4px;line-height:1.6;&quot;&gt;+ ProjectManagementController(AppContext): &lt;/p&gt;&lt;hr size=&quot;1&quot;/&gt;&lt;p style=&quot;margin:0 0 0 4px;line-height:1.6;&quot;&gt;- projectManagementService: ProjectManagementService&lt;/p&gt;&lt;hr size=&quot;1&quot;/&gt;&lt;p style=&quot;margin:0 0 0 4px;line-height:1.6;&quot;&gt;+ editProject(String, String, int, boolean): void&lt;br/&gt;+ deleteProject(int): boolean&lt;br/&gt;+ createProject(): void&lt;br/&gt;+ toggleProjectVisibility(Integer): void&lt;/p&gt;" style="verticalAlign=top;align=left;overflow=fill;fontSize=14;fontFamily=Helvetica;html=1;rounded=0;shadow=0;comic=0;labelBackgroundColor=none;strokeWidth=1;" parent="1" vertex="1">
                    <mxGeometry x="2686" y="4371" width="392" height="209" as="geometry"/>
                </mxCell>
                <mxCell id="node38" value="&lt;p style=&quot;margin:0px;margin-top:4px;text-align:center;&quot;&gt;&lt;b&gt;ProjectManagementService&lt;/b&gt;&lt;/p&gt;&lt;hr size=&quot;1&quot;/&gt;&lt;p style=&quot;margin:0 0 0 4px;line-height:1.6;&quot;&gt;+ ProjectManagementService(AppContext): &lt;/p&gt;&lt;hr size=&quot;1&quot;/&gt;&lt;p style=&quot;margin:0 0 0 4px;line-height:1.6;&quot;&gt;- appContext: AppContext&lt;/p&gt;&lt;hr size=&quot;1&quot;/&gt;&lt;p style=&quot;margin:0 0 0 4px;line-height:1.6;&quot;&gt;+ deleteProject(int): boolean&lt;br/&gt;+ toggleProjectVisibility(Integer): void&lt;br/&gt;+ createProject(): void&lt;br/&gt;+ editProject(String, String, int, boolean): void&lt;/p&gt;" style="verticalAlign=top;align=left;overflow=fill;fontSize=14;fontFamily=Helvetica;html=1;rounded=0;shadow=0;comic=0;labelBackgroundColor=none;strokeWidth=1;" parent="1" vertex="1">
                    <mxGeometry x="2724.5" y="3870" width="315" height="210" as="geometry"/>
                </mxCell>
                <mxCell id="node2" value="&lt;p style=&quot;margin:0px;margin-top:4px;text-align:center;&quot;&gt;&lt;b&gt;ProjectRepo&lt;/b&gt;&lt;/p&gt;&lt;hr size=&quot;1&quot;/&gt;&lt;p style=&quot;margin:0 0 0 4px;line-height:1.6;&quot;&gt;+ ProjectRepo(): &lt;/p&gt;&lt;hr size=&quot;1&quot;/&gt;&lt;p style=&quot;margin:0 0 0 4px;line-height:1.6;&quot;&gt;- projects: List&amp;lt;BTOProjectModel&amp;gt;&lt;/p&gt;&lt;hr size=&quot;1&quot;/&gt;&lt;p style=&quot;margin:0 0 0 4px;line-height:1.6;&quot;&gt;+ getProjectsByManagerID(int): List&amp;lt;BTOProjectModel&amp;gt;&lt;br/&gt;+ findByFilter(AppContext): List&amp;lt;BTOProjectModel&amp;gt;&lt;br/&gt;+ save(BTOProjectModel): void&lt;br/&gt;+ getLastProjectID(): int&lt;br/&gt;+ findAll(): List&amp;lt;BTOProjectModel&amp;gt;&lt;br/&gt;+ delete(Integer): boolean&lt;br/&gt;+ findPersonalByFilter(AppContext): List&amp;lt;BTOProjectModel&amp;gt;&lt;br/&gt;+ hasDateConflict(LocalDate, LocalDate, AppContext): boolean&lt;br/&gt;+ findByID(Integer): BTOProjectModel&lt;br/&gt;+ getAllProject(): Map&amp;lt;Integer, String&amp;gt;&lt;br/&gt;+ getProjectsByOfficer(UserModel): List&amp;lt;BTOProjectModel&amp;gt;&lt;/p&gt;" style="verticalAlign=top;align=left;overflow=fill;fontSize=14;fontFamily=Helvetica;html=1;rounded=0;shadow=0;comic=0;labelBackgroundColor=none;strokeWidth=1;" parent="1" vertex="1">
                    <mxGeometry x="2306" y="2716" width="422" height="364" as="geometry"/>
                </mxCell>
                <mxCell id="node48" value="&lt;p style=&quot;margin:0px;margin-top:4px;text-align:center;&quot;&gt;&lt;b&gt;ProjectService&lt;/b&gt;&lt;/p&gt;&lt;hr size=&quot;1&quot;/&gt;&lt;p style=&quot;margin:0 0 0 4px;line-height:1.6;&quot;&gt;+ ProjectService(AppContext): &lt;/p&gt;&lt;hr size=&quot;1&quot;/&gt;&lt;p style=&quot;margin:0 0 0 4px;line-height:1.6;&quot;&gt;- appContext: AppContext&lt;/p&gt;&lt;hr size=&quot;1&quot;/&gt;&lt;p style=&quot;margin:0 0 0 4px;line-height:1.6;&quot;&gt;+ viewProjectByID(int): void&lt;br/&gt;+ viewManagingProject(): BTOProjectModel&lt;/p&gt;" style="verticalAlign=top;align=left;overflow=fill;fontSize=14;fontFamily=Helvetica;html=1;rounded=0;shadow=0;comic=0;labelBackgroundColor=none;strokeWidth=1;" parent="1" vertex="1">
                    <mxGeometry x="1982" y="3894" width="304" height="156" as="geometry"/>
                </mxCell>
                <mxCell id="node11" value="&lt;p style=&quot;margin:0px;margin-top:4px;text-align:center;&quot;&gt;&lt;b&gt;ProjectView&lt;/b&gt;&lt;/p&gt;&lt;hr size=&quot;1&quot;/&gt;&lt;p style=&quot;margin:0 0 0 4px;line-height:1.6;&quot;&gt;+ ProjectView(): &lt;/p&gt;&lt;hr size=&quot;1&quot;/&gt;&lt;p style=&quot;margin:0 0 0 4px;line-height:1.6;&quot;&gt;+ projectManagingMenu(AppContext): void&lt;br/&gt;- setFilterMenu(AppContext): void&lt;br/&gt;- printPersonalProjectMenu(AppContext): void&lt;br/&gt;- printProjectMenu(AppContext): void&lt;br/&gt;+ viewProjectFilterableMenu(AppContext): void&lt;/p&gt;" style="verticalAlign=top;align=left;overflow=fill;fontSize=14;fontFamily=Helvetica;html=1;rounded=0;shadow=0;comic=0;labelBackgroundColor=none;strokeWidth=1;" parent="1" vertex="1">
                    <mxGeometry x="801" y="4372" width="326" height="188" as="geometry"/>
                </mxCell>
                <mxCell id="node49" value="&lt;p style=&quot;margin:0px;margin-top:4px;text-align:center;&quot;&gt;&lt;b&gt;ProjectViewFilterModel&lt;/b&gt;&lt;/p&gt;&lt;hr size=&quot;1&quot;/&gt;&lt;p style=&quot;margin:0 0 0 4px;line-height:1.6;&quot;&gt;+ ProjectViewFilterModel(): &lt;/p&gt;&lt;hr size=&quot;1&quot;/&gt;&lt;p style=&quot;margin:0 0 0 4px;line-height:1.6;&quot;&gt;- flatType: FlatType&lt;br/&gt;- neighborhood: Neighborhood&lt;/p&gt;&lt;hr size=&quot;1&quot;/&gt;&lt;p style=&quot;margin:0 0 0 4px;line-height:1.6;&quot;&gt;+ setFlatType(): void&lt;br/&gt;+ getFlatType(): FlatType&lt;br/&gt;+ setNeighborhood(Neighborhood): void&lt;br/&gt;+ getNeighborhood(): Neighborhood&lt;br/&gt;+ setFlatType(FlatType): void&lt;br/&gt;+ setNeighborhood(): void&lt;/p&gt;" style="verticalAlign=top;align=left;overflow=fill;fontSize=14;fontFamily=Helvetica;html=1;rounded=0;shadow=0;comic=0;labelBackgroundColor=none;strokeWidth=1;" parent="1" vertex="1">
                    <mxGeometry x="2024" y="584" width="285" height="266" as="geometry"/>
                </mxCell>
                <mxCell id="node44" value="&lt;p style=&quot;margin:0px;margin-top:4px;text-align:center;&quot;&gt;&lt;b&gt;Receipt&lt;/b&gt;&lt;/p&gt;&lt;hr size=&quot;1&quot;/&gt;&lt;p style=&quot;margin:0 0 0 4px;line-height:1.6;&quot;&gt;+ Receipt(BTOApplicationModel): &lt;/p&gt;&lt;hr size=&quot;1&quot;/&gt;&lt;p style=&quot;margin:0 0 0 4px;line-height:1.6;&quot;&gt;- application: BTOApplicationModel&lt;/p&gt;&lt;hr size=&quot;1&quot;/&gt;&lt;p style=&quot;margin:0 0 0 4px;line-height:1.6;&quot;&gt;+ printReceipt(): void&lt;/p&gt;" style="verticalAlign=top;align=left;overflow=fill;fontSize=14;fontFamily=Helvetica;html=1;rounded=0;shadow=0;comic=0;labelBackgroundColor=none;strokeWidth=1;" parent="1" vertex="1">
                    <mxGeometry x="3738" y="2220" width="254" height="140" as="geometry"/>
                </mxCell>
                <mxCell id="node18" value="&lt;p style=&quot;margin:0px;margin-top:4px;text-align:center;&quot;&gt;&lt;i&gt;&amp;lt;&amp;lt;interface&amp;gt;&amp;gt;&lt;/i&gt;&lt;br/&gt;&lt;b&gt;RepoInterface&lt;T, ID&gt;&lt;/b&gt;&lt;/p&gt;&lt;hr size=&quot;1&quot;/&gt;&lt;p style=&quot;margin:0 0 0 4px;line-height:1.6;&quot;&gt;+ findAll(): List&amp;lt;T&amp;gt;&lt;br/&gt;+ save(T): void&lt;br/&gt;+ findByID(ID): T&lt;br/&gt;+ delete(ID): boolean&lt;/p&gt;" style="verticalAlign=top;align=left;overflow=fill;fontSize=14;fontFamily=Helvetica;html=1;rounded=0;shadow=0;comic=0;labelBackgroundColor=none;strokeWidth=1;" parent="1" vertex="1">
                    <mxGeometry x="2196" y="2320" width="217" height="169" as="geometry"/>
                </mxCell>
                <mxCell id="node3" value="&lt;p style=&quot;margin:0px;margin-top:4px;text-align:center;&quot;&gt;&lt;b&gt;ReportingController&lt;/b&gt;&lt;/p&gt;&lt;hr size=&quot;1&quot;/&gt;&lt;p style=&quot;margin:0 0 0 4px;line-height:1.6;&quot;&gt;+ ReportingController(AppContext): &lt;br/&gt;+ ReportingController(ReportingService): &lt;/p&gt;&lt;hr size=&quot;1&quot;/&gt;&lt;p style=&quot;margin:0 0 0 4px;line-height:1.6;&quot;&gt;- reportingService: ReportingService&lt;/p&gt;&lt;hr size=&quot;1&quot;/&gt;&lt;p style=&quot;margin:0 0 0 4px;line-height:1.6;&quot;&gt;+ generateProjectReport(BTOProjectModel, int): void&lt;/p&gt;" style="verticalAlign=top;align=left;overflow=fill;fontSize=14;fontFamily=Helvetica;html=1;rounded=0;shadow=0;comic=0;labelBackgroundColor=none;strokeWidth=1;" parent="1" vertex="1">
                    <mxGeometry x="2306" y="4395" width="360" height="155" as="geometry"/>
                </mxCell>
                <mxCell id="node45" value="&lt;p style=&quot;margin:0px;margin-top:4px;text-align:center;&quot;&gt;&lt;b&gt;ReportingService&lt;/b&gt;&lt;/p&gt;&lt;hr size=&quot;1&quot;/&gt;&lt;p style=&quot;margin:0 0 0 4px;line-height:1.6;&quot;&gt;+ ReportingService(AppContext): &lt;/p&gt;&lt;hr size=&quot;1&quot;/&gt;&lt;p style=&quot;margin:0 0 0 4px;line-height:1.6;&quot;&gt;- appContext: AppContext&lt;/p&gt;&lt;hr size=&quot;1&quot;/&gt;&lt;p style=&quot;margin:0 0 0 4px;line-height:1.6;&quot;&gt;+ generateProjectReport(BTOProjectModel, int): void&lt;/p&gt;" style="verticalAlign=top;align=left;overflow=fill;fontSize=14;fontFamily=Helvetica;html=1;rounded=0;shadow=0;comic=0;labelBackgroundColor=none;strokeWidth=1;" parent="1" vertex="1">
                    <mxGeometry x="2306" y="3906" width="360" height="134" as="geometry"/>
                </mxCell>
                <mxCell id="node16" value="&lt;p style=&quot;margin:0px;margin-top:4px;text-align:center;&quot;&gt;&lt;b&gt;UserController&lt;/b&gt;&lt;/p&gt;&lt;hr size=&quot;1&quot;/&gt;&lt;p style=&quot;margin:0 0 0 4px;line-height:1.6;&quot;&gt;+ UserController(): &lt;/p&gt;&lt;hr size=&quot;1&quot;/&gt;&lt;p style=&quot;margin:0 0 0 4px;line-height:1.6;&quot;&gt;- userService: UserService&lt;/p&gt;&lt;hr size=&quot;1&quot;/&gt;&lt;p style=&quot;margin:0 0 0 4px;line-height:1.6;&quot;&gt;+ resetPassword(UserModel, Scanner): void&lt;br/&gt;+ authenticateUser(String, String, UserRepo): UserModel&lt;br/&gt;+ registerApplicant(String, String, int, String, String, UserRepo): UserModel&lt;br/&gt;+ updatePassword(UserModel, String, String): boolean&lt;/p&gt;" style="verticalAlign=top;align=left;overflow=fill;fontSize=14;fontFamily=Helvetica;html=1;rounded=0;shadow=0;comic=0;labelBackgroundColor=none;strokeWidth=1;" parent="1" vertex="1">
                    <mxGeometry x="-202" y="4371" width="472" height="199" as="geometry"/>
                </mxCell>
                <mxCell id="node23" value="&lt;p style=&quot;margin:0px;margin-top:4px;text-align:center;&quot;&gt;&lt;b&gt;&amp;lt;&amp;lt;Abstract&amp;gt;&amp;gt;&lt;/b&gt;&lt;/p&gt;&lt;p style=&quot;margin:0px;margin-top:4px;text-align:center;&quot;&gt;&lt;b&gt;UserModel&lt;/b&gt;&lt;/p&gt;&lt;hr size=&quot;1&quot;&gt;&lt;p style=&quot;margin:0 0 0 4px;line-height:1.6;&quot;&gt;# UserModel(String, String, int, String, String, UserRole): &lt;/p&gt;&lt;hr size=&quot;1&quot;&gt;&lt;p style=&quot;margin:0 0 0 4px;line-height:1.6;&quot;&gt;- age: int&lt;br&gt;- usersRole: UserRole&lt;br&gt;- password: String&lt;br&gt;- isMarried: boolean&lt;br&gt;- nric: String&lt;br&gt;- nextUserID: int&lt;br&gt;- projectViewFilter: ProjectViewFilterModel&lt;br&gt;- name: String&lt;br&gt;- userID: int&lt;/p&gt;&lt;hr size=&quot;1&quot;&gt;&lt;p style=&quot;margin:0 0 0 4px;line-height:1.6;&quot;&gt;+ getUserID(): int&lt;br&gt;+ getUsersRole(): UserRole&lt;br&gt;+ setPassword(String): void&lt;br&gt;+ getMaritalStatus(): Boolean&lt;br&gt;+ authenticate(String): void&lt;br&gt;+ getAge(): int&lt;br&gt;+ getNRIC(): String&lt;br&gt;- hashPasswd(String): String?&lt;br&gt;+ getMenuOptions(): List&amp;lt;String&amp;gt;&lt;br&gt;+ getProjectViewFilter(): ProjectViewFilterModel&lt;br&gt;+ getName(): String&lt;/p&gt;" style="verticalAlign=top;align=left;overflow=fill;fontSize=14;fontFamily=Helvetica;html=1;rounded=0;shadow=0;comic=0;labelBackgroundColor=none;strokeWidth=1;" parent="1" vertex="1">
                    <mxGeometry x="1502" y="493" width="382" height="557" as="geometry"/>
                </mxCell>
                <mxCell id="node36" value="&lt;p style=&quot;margin:0px;margin-top:4px;text-align:center;&quot;&gt;&lt;b&gt;UserRepo&lt;/b&gt;&lt;/p&gt;&lt;hr size=&quot;1&quot;/&gt;&lt;p style=&quot;margin:0 0 0 4px;line-height:1.6;&quot;&gt;+ UserRepo(): &lt;/p&gt;&lt;hr size=&quot;1&quot;/&gt;&lt;p style=&quot;margin:0 0 0 4px;line-height:1.6;&quot;&gt;- users: List&amp;lt;UserModel&amp;gt;&lt;/p&gt;&lt;hr size=&quot;1&quot;/&gt;&lt;p style=&quot;margin:0 0 0 4px;line-height:1.6;&quot;&gt;+ findAll(): List&amp;lt;UserModel&amp;gt;&lt;br/&gt;+ getUserByName(String): UserModel&lt;br/&gt;+ delete(Integer): boolean&lt;br/&gt;+ getUserByNRIC(String): UserModel&lt;br/&gt;+ findByID(Integer): UserModel&lt;br/&gt;+ save(UserModel): void&lt;br/&gt;+ getUserByUserID(int): UserModel&lt;/p&gt;" style="verticalAlign=top;align=left;overflow=fill;fontSize=14;fontFamily=Helvetica;html=1;rounded=0;shadow=0;comic=0;labelBackgroundColor=none;strokeWidth=1;" parent="1" vertex="1">
                    <mxGeometry x="1173" y="2764" width="267" height="266" as="geometry"/>
                </mxCell>
                <mxCell id="node7" value="&lt;p style=&quot;margin:0px;margin-top:4px;text-align:center;&quot;&gt;&lt;i&gt;&amp;lt;&amp;lt;enumeration&amp;gt;&amp;gt;&lt;/i&gt;&lt;br/&gt;&lt;b&gt;UserRole&lt;/b&gt;&lt;/p&gt;&lt;hr size=&quot;1&quot;/&gt;&lt;p style=&quot;margin:0 0 0 4px;line-height:1.6;&quot;&gt;+ UserRole(): &lt;/p&gt;&lt;hr size=&quot;1&quot;/&gt;&lt;p style=&quot;margin:0 0 0 4px;line-height:1.6;&quot;&gt;+ HDB_MANAGER: &lt;br/&gt;+ APPLICANT: &lt;br/&gt;+ HDB_OFFICER: &lt;/p&gt;&lt;hr size=&quot;1&quot;/&gt;&lt;p style=&quot;margin:0 0 0 4px;line-height:1.6;&quot;&gt;+ values(): UserRole[]&lt;br/&gt;+ valueOf(String): UserRole&lt;/p&gt;" style="verticalAlign=top;align=left;overflow=fill;fontSize=14;fontFamily=Helvetica;html=1;rounded=0;shadow=0;comic=0;labelBackgroundColor=none;strokeWidth=1;" parent="1" vertex="1">
                    <mxGeometry x="1732" y="59" width="203" height="231" as="geometry"/>
                </mxCell>
                <mxCell id="node17" value="&lt;p style=&quot;margin:0px;margin-top:4px;text-align:center;&quot;&gt;&lt;b&gt;UserService&lt;/b&gt;&lt;/p&gt;&lt;hr size=&quot;1&quot;/&gt;&lt;p style=&quot;margin:0 0 0 4px;line-height:1.6;&quot;&gt;+ UserService(): &lt;/p&gt;&lt;hr size=&quot;1&quot;/&gt;&lt;p style=&quot;margin:0 0 0 4px;line-height:1.6;&quot;&gt;+ authenticateUser(String, String, UserRepo): UserModel&lt;br/&gt;+ registerApplicant(String, String, int, String, String, UserRepo): UserModel&lt;br/&gt;+ resetPassword(UserModel, Scanner): void&lt;br/&gt;+ updatePassword(UserModel, String, String): boolean&lt;/p&gt;" style="verticalAlign=top;align=left;overflow=fill;fontSize=14;fontFamily=Helvetica;html=1;rounded=0;shadow=0;comic=0;labelBackgroundColor=none;strokeWidth=1;" parent="1" vertex="1">
                    <mxGeometry x="-202" y="3883" width="461" height="167" as="geometry"/>
                </mxCell>
                <mxCell id="node24" value="&lt;p style=&quot;margin:0px;margin-top:4px;text-align:center;&quot;&gt;&lt;b&gt;mainAppView&lt;/b&gt;&lt;/p&gt;&lt;hr size=&quot;1&quot;/&gt;&lt;p style=&quot;margin:0 0 0 4px;line-height:1.6;&quot;&gt;+ mainAppView(): &lt;/p&gt;&lt;hr size=&quot;1&quot;/&gt;&lt;p style=&quot;margin:0 0 0 4px;line-height:1.6;&quot;&gt;- userController: UserController&lt;/p&gt;&lt;hr size=&quot;1&quot;/&gt;&lt;p style=&quot;margin:0 0 0 4px;line-height:1.6;&quot;&gt;+ MainMenu(Scanner): String&lt;br/&gt;+ LoginMenu(Scanner, UserRepo): UserModel&lt;br/&gt;+ RegisterMenu(Scanner, UserRepo): UserModel&lt;br/&gt;+ startMenu(AppContext): void&lt;/p&gt;" style="verticalAlign=top;align=left;overflow=fill;fontSize=14;fontFamily=Helvetica;html=1;rounded=0;shadow=0;comic=0;labelBackgroundColor=none;strokeWidth=1;" parent="1" vertex="1">
                    <mxGeometry x="-132.5" y="5010" width="333" height="205" as="geometry"/>
                </mxCell>
                <mxCell id="edge46" value="" style="html=1;rounded=1;edgeStyle=orthogonalEdgeStyle;dashed=0;startArrow=diamondThinstartSize=12;endArrow=openThin;endSize=12;strokeColor=#595959;entryX=0.500;entryY=1.000;entryDx=0;entryDy=0;" parent="1" target="node30" edge="1">
                    <mxGeometry width="50" height="50" relative="1" as="geometry">
                        <Array as="points">
                            <mxPoint x="3017" y="3366"/>
                        </Array>
                        <mxPoint x="1895" y="3360" as="sourcePoint"/>
                    </mxGeometry>
                </mxCell>
                <mxCell id="label276" value="1" style="edgeLabel;resizable=0;html=1;align=left;verticalAlign=top;strokeColor=default;" parent="edge46" vertex="1" connectable="0">
                    <mxGeometry x="1900" y="3350" as="geometry"/>
                </mxCell>
                <mxCell id="label280" value="1" style="edgeLabel;resizable=0;html=1;align=left;verticalAlign=top;strokeColor=default;" parent="edge46" vertex="1" connectable="0">
                    <mxGeometry x="3000" y="3160" as="geometry"/>
                </mxCell>
                <mxCell id="edge29" value="" style="html=1;rounded=1;edgeStyle=orthogonalEdgeStyle;dashed=0;startArrow=diamondThinstartSize=12;endArrow=openThin;endSize=12;strokeColor=#595959;entryX=0.998;entryY=0.429;entryDx=0;entryDy=0;entryPerimeter=0;" parent="1" target="node50" edge="1">
                    <mxGeometry width="50" height="50" relative="1" as="geometry">
                        <Array as="points">
                            <mxPoint x="3955" y="3395"/>
                            <mxPoint x="3955" y="4452"/>
                        </Array>
                        <mxPoint x="1895" y="3390" as="sourcePoint"/>
                    </mxGeometry>
                </mxCell>
                <mxCell id="label174" value="1" style="edgeLabel;resizable=0;html=1;align=left;verticalAlign=top;strokeColor=default;" parent="edge29" vertex="1" connectable="0">
                    <mxGeometry x="1900" y="3380" as="geometry"/>
                </mxCell>
                <mxCell id="label178" value="1" style="edgeLabel;resizable=0;html=1;align=left;verticalAlign=top;strokeColor=default;" parent="edge29" vertex="1" connectable="0">
                    <mxGeometry x="3940" y="4449" as="geometry"/>
                </mxCell>
                <mxCell id="edge51" value="" style="html=1;rounded=1;edgeStyle=orthogonalEdgeStyle;dashed=0;startArrow=diamondThinstartSize=12;endArrow=openThin;endSize=12;strokeColor=#595959;exitX=0.401;exitY=0.000;exitDx=0;exitDy=0;entryX=0.500;entryY=1.000;entryDx=0;entryDy=0;" parent="1" source="node37" target="node33" edge="1">
                    <mxGeometry width="50" height="50" relative="1" as="geometry">
                        <Array as="points"/>
                    </mxGeometry>
                </mxCell>
                <mxCell id="label306" value="1" style="edgeLabel;resizable=0;html=1;align=left;verticalAlign=top;strokeColor=default;" parent="edge51" vertex="1" connectable="0">
                    <mxGeometry x="1635" y="3054" as="geometry"/>
                </mxCell>
                <mxCell id="label310" value="1" style="edgeLabel;resizable=0;html=1;align=left;verticalAlign=top;strokeColor=default;" parent="edge51" vertex="1" connectable="0">
                    <mxGeometry x="1635" y="3120" as="geometry"/>
                </mxCell>
                <mxCell id="edge20" value="" style="html=1;rounded=1;edgeStyle=orthogonalEdgeStyle;dashed=0;startArrow=diamondThinstartSize=12;endArrow=openThin;endSize=12;strokeColor=#595959;exitX=0.878;exitY=0.000;exitDx=0;exitDy=0;entryX=0.016;entryY=1.000;entryDx=0;entryDy=0;" parent="1" source="node37" target="node19" edge="1">
                    <mxGeometry width="50" height="50" relative="1" as="geometry">
                        <Array as="points"/>
                    </mxGeometry>
                </mxCell>
                <mxCell id="label120" value="1" style="edgeLabel;resizable=0;html=1;align=left;verticalAlign=top;strokeColor=default;" parent="edge20" vertex="1" connectable="0">
                    <mxGeometry x="1850" y="3120" as="geometry"/>
                </mxCell>
                <mxCell id="label124" value="1" style="edgeLabel;resizable=0;html=1;align=left;verticalAlign=top;strokeColor=default;" parent="edge20" vertex="1" connectable="0">
                    <mxGeometry x="1832" y="3036" as="geometry"/>
                </mxCell>
                <mxCell id="edge31" value="" style="html=1;rounded=1;edgeStyle=orthogonalEdgeStyle;dashed=0;startArrow=diamondThinstartSize=12;endArrow=openThin;endSize=12;strokeColor=#595959;entryX=0.500;entryY=1.000;entryDx=0;entryDy=0;" parent="1" target="node2" edge="1">
                    <mxGeometry width="50" height="50" relative="1" as="geometry">
                        <Array as="points">
                            <mxPoint x="2517" y="3381"/>
                        </Array>
                        <mxPoint x="1895" y="3381" as="sourcePoint"/>
                    </mxGeometry>
                </mxCell>
                <mxCell id="label186" value="1" style="edgeLabel;resizable=0;html=1;align=left;verticalAlign=top;strokeColor=default;" parent="edge31" vertex="1" connectable="0">
                    <mxGeometry x="1900" y="3362" as="geometry"/>
                </mxCell>
                <mxCell id="label190" value="1" style="edgeLabel;resizable=0;html=1;align=left;verticalAlign=top;strokeColor=default;" parent="edge31" vertex="1" connectable="0">
                    <mxGeometry x="2505" y="3100" as="geometry"/>
                </mxCell>
                <mxCell id="edge66" value="" style="html=1;rounded=1;edgeStyle=orthogonalEdgeStyle;dashed=0;startArrow=diamondThinstartSize=12;endArrow=openThin;endSize=12;strokeColor=#595959;" parent="1" edge="1">
                    <mxGeometry width="50" height="50" relative="1" as="geometry">
                        <Array as="points">
                            <mxPoint x="1133" y="3441"/>
                            <mxPoint x="1133" y="739"/>
                        </Array>
                        <mxPoint x="1480" y="3441" as="sourcePoint"/>
                        <mxPoint x="1502" y="739" as="targetPoint"/>
                    </mxGeometry>
                </mxCell>
                <mxCell id="label396" value="1" style="edgeLabel;resizable=0;html=1;align=left;verticalAlign=top;strokeColor=default;" parent="edge66" vertex="1" connectable="0">
                    <mxGeometry x="1444" y="3437" as="geometry"/>
                </mxCell>
                <mxCell id="label400" value="1" style="edgeLabel;resizable=0;html=1;align=left;verticalAlign=top;strokeColor=default;" parent="edge66" vertex="1" connectable="0">
                    <mxGeometry x="1425" y="721" as="geometry"/>
                </mxCell>
                <mxCell id="edge8" value="" style="html=1;rounded=1;edgeStyle=orthogonalEdgeStyle;dashed=0;startArrow=diamondThinstartSize=12;endArrow=openThin;endSize=12;strokeColor=#595959;entryX=0.500;entryY=1.000;entryDx=0;entryDy=0;" parent="1" target="node36" edge="1">
                    <mxGeometry width="50" height="50" relative="1" as="geometry">
                        <Array as="points">
                            <mxPoint x="1307" y="3426"/>
                        </Array>
                        <mxPoint x="1480" y="3426" as="sourcePoint"/>
                    </mxGeometry>
                </mxCell>
                <mxCell id="label48" value="1" style="edgeLabel;resizable=0;html=1;align=left;verticalAlign=top;strokeColor=default;" parent="edge8" vertex="1" connectable="0">
                    <mxGeometry x="1450" y="3400" as="geometry"/>
                </mxCell>
                <mxCell id="label52" value="1" style="edgeLabel;resizable=0;html=1;align=left;verticalAlign=top;strokeColor=default;" parent="edge8" vertex="1" connectable="0">
                    <mxGeometry x="1295" y="3057" as="geometry"/>
                </mxCell>
                <mxCell id="edge19" value="" style="html=1;rounded=1;edgeStyle=orthogonalEdgeStyle;dashed=0;startArrow=diamondThinstartSize=12;endArrow=openThin;endSize=12;strokeColor=#595959;exitX=0.002;exitY=0.485;exitDx=0;exitDy=0;entryX=1.002;entryY=0.205;entryDx=0;entryDy=0;exitPerimeter=0;entryPerimeter=0;" parent="1" source="node32" target="node31" edge="1">
                    <mxGeometry width="50" height="50" relative="1" as="geometry">
                        <Array as="points"/>
                    </mxGeometry>
                </mxCell>
                <mxCell id="label114" value="1" style="edgeLabel;resizable=0;html=1;align=left;verticalAlign=top;strokeColor=default;" parent="edge19" vertex="1" connectable="0">
                    <mxGeometry x="2754" y="1296" as="geometry"/>
                </mxCell>
                <mxCell id="label118" value="1" style="edgeLabel;resizable=0;html=1;align=left;verticalAlign=top;strokeColor=default;" parent="edge19" vertex="1" connectable="0">
                    <mxGeometry x="2695" y="1296" as="geometry"/>
                </mxCell>
                <mxCell id="edge47" value="" style="html=1;rounded=1;edgeStyle=orthogonalEdgeStyle;dashed=0;startArrow=diamondThinstartSize=12;endArrow=openThin;endSize=12;strokeColor=#595959;exitX=0.707;exitY=0.000;exitDx=0;exitDy=0;entryX=0.575;entryY=1.000;entryDx=0;entryDy=0;" parent="1" source="node32" target="node12" edge="1">
                    <mxGeometry width="50" height="50" relative="1" as="geometry">
                        <Array as="points"/>
                    </mxGeometry>
                </mxCell>
                <mxCell id="label282" value="1" style="edgeLabel;resizable=0;html=1;align=left;verticalAlign=top;strokeColor=default;" parent="edge47" vertex="1" connectable="0">
                    <mxGeometry x="3040" y="1170" as="geometry"/>
                </mxCell>
                <mxCell id="label286" value="1" style="edgeLabel;resizable=0;html=1;align=left;verticalAlign=top;strokeColor=default;" parent="edge47" vertex="1" connectable="0">
                    <mxGeometry x="3060" y="270" as="geometry"/>
                </mxCell>
                <mxCell id="edge3" value="" style="html=1;rounded=1;edgeStyle=orthogonalEdgeStyle;dashed=0;startArrow=none;endArrow=block;endSize=12;strokeColor=#000082;exitX=0.500;exitY=0.000;exitDx=0;exitDy=0;entryX=0.997;entryY=0.688;entryDx=0;entryDy=0;entryPerimeter=0;" parent="1" source="node32" target="node23" edge="1">
                    <mxGeometry width="50" height="50" relative="1" as="geometry">
                        <Array as="points">
                            <mxPoint x="2973" y="876"/>
                        </Array>
                    </mxGeometry>
                </mxCell>
                <mxCell id="edge57" value="" style="html=1;rounded=1;edgeStyle=orthogonalEdgeStyle;dashed=0;startArrow=diamondThinstartSize=12;endArrow=openThin;endSize=12;strokeColor=#595959;exitX=1.000;exitY=0.500;exitDx=0;exitDy=0;entryX=0.435;entryY=1.002;entryDx=0;entryDy=0;entryPerimeter=0;" parent="1" source="node40" target="24" edge="1">
                    <mxGeometry width="50" height="50" relative="1" as="geometry">
                        <Array as="points">
                            <mxPoint x="1565" y="5204"/>
                        </Array>
                    </mxGeometry>
                </mxCell>
                <mxCell id="label342" value="1" style="edgeLabel;resizable=0;html=1;align=left;verticalAlign=top;strokeColor=default;" parent="edge57" vertex="1" connectable="0">
                    <mxGeometry x="1430" y="5188" as="geometry"/>
                </mxCell>
                <mxCell id="label346" value="1" style="edgeLabel;resizable=0;html=1;align=left;verticalAlign=top;strokeColor=default;" parent="edge57" vertex="1" connectable="0">
                    <mxGeometry x="1550" y="4720" as="geometry"/>
                </mxCell>
                <mxCell id="edge61" value="" style="html=1;rounded=1;edgeStyle=orthogonalEdgeStyle;dashed=0;startArrow=diamondThinstartSize=12;endArrow=openThin;endSize=12;strokeColor=#595959;exitX=0.500;exitY=0.000;exitDx=0;exitDy=0;entryX=0.347;entryY=1.000;entryDx=0;entryDy=0;" parent="1" source="node40" target="node5" edge="1">
                    <mxGeometry width="50" height="50" relative="1" as="geometry">
                        <Array as="points"/>
                    </mxGeometry>
                </mxCell>
                <mxCell id="label366" value="1" style="edgeLabel;resizable=0;html=1;align=left;verticalAlign=top;strokeColor=default;" parent="edge61" vertex="1" connectable="0">
                    <mxGeometry x="1240" y="4994" as="geometry"/>
                </mxCell>
                <mxCell id="label370" value="1" style="edgeLabel;resizable=0;html=1;align=left;verticalAlign=top;strokeColor=default;" parent="edge61" vertex="1" connectable="0">
                    <mxGeometry x="1240" y="4600" as="geometry"/>
                </mxCell>
                <mxCell id="edge36" value="" style="html=1;rounded=1;edgeStyle=orthogonalEdgeStyle;dashed=0;startArrow=diamondThinstartSize=12;endArrow=openThin;endSize=12;strokeColor=#595959;exitX=0.545;exitY=1.000;exitDx=0;exitDy=0;entryX=0.549;entryY=1.000;entryDx=0;entryDy=0;" parent="1" source="node40" target="node35" edge="1">
                    <mxGeometry width="50" height="50" relative="1" as="geometry">
                        <Array as="points">
                            <mxPoint x="1267" y="5570"/>
                            <mxPoint x="2149" y="5570"/>
                        </Array>
                    </mxGeometry>
                </mxCell>
                <mxCell id="label216" value="1" style="edgeLabel;resizable=0;html=1;align=left;verticalAlign=top;strokeColor=default;" parent="edge36" vertex="1" connectable="0">
                    <mxGeometry x="1267" y="5374" as="geometry"/>
                </mxCell>
                <mxCell id="label220" value="1" style="edgeLabel;resizable=0;html=1;align=left;verticalAlign=top;strokeColor=default;" parent="edge36" vertex="1" connectable="0">
                    <mxGeometry x="2137" y="4560" as="geometry"/>
                </mxCell>
                <mxCell id="edge52" value="" style="html=1;rounded=1;edgeStyle=orthogonalEdgeStyle;dashed=0;startArrow=diamondThinstartSize=12;endArrow=openThin;endSize=12;strokeColor=#595959;exitX=0.022;exitY=0.000;exitDx=0;exitDy=0;entryX=0.895;entryY=1.000;entryDx=0;entryDy=0;" parent="1" source="node40" target="node11" edge="1">
                    <mxGeometry width="50" height="50" relative="1" as="geometry">
                        <Array as="points"/>
                    </mxGeometry>
                </mxCell>
                <mxCell id="label312" value="1" style="edgeLabel;resizable=0;html=1;align=left;verticalAlign=top;strokeColor=default;" parent="edge52" vertex="1" connectable="0">
                    <mxGeometry x="1081" y="4991" as="geometry"/>
                </mxCell>
                <mxCell id="label316" value="1" style="edgeLabel;resizable=0;html=1;align=left;verticalAlign=top;strokeColor=default;" parent="edge52" vertex="1" connectable="0">
                    <mxGeometry x="1081" y="4580" as="geometry"/>
                </mxCell>
                <mxCell id="edge64" value="" style="html=1;rounded=1;edgeStyle=orthogonalEdgeStyle;dashed=0;startArrow=diamondThinstartSize=12;endArrow=openThin;endSize=12;strokeColor=#595959;exitX=0.500;exitY=1.000;exitDx=0;exitDy=0;entryX=-0.003;entryY=0.471;entryDx=0;entryDy=0;entryPerimeter=0;" parent="1" source="node40" target="node16" edge="1">
                    <mxGeometry width="50" height="50" relative="1" as="geometry">
                        <Array as="points">
                            <mxPoint x="1252" y="5459"/>
                            <mxPoint x="-263" y="5459"/>
                            <mxPoint x="-263" y="4465"/>
                        </Array>
                    </mxGeometry>
                </mxCell>
                <mxCell id="label384" value="1" style="edgeLabel;resizable=0;html=1;align=left;verticalAlign=top;strokeColor=default;" parent="edge64" vertex="1" connectable="0">
                    <mxGeometry x="1252" y="5378" as="geometry"/>
                </mxCell>
                <mxCell id="label388" value="1" style="edgeLabel;resizable=0;html=1;align=left;verticalAlign=top;strokeColor=default;" parent="edge64" vertex="1" connectable="0">
                    <mxGeometry x="-226" y="4449" as="geometry"/>
                </mxCell>
                <mxCell id="edge55" value="" style="html=1;rounded=1;edgeStyle=orthogonalEdgeStyle;dashed=0;startArrow=diamondThinstartSize=12;endArrow=openThin;endSize=12;strokeColor=#595959;exitX=0.505;exitY=0;exitDx=0;exitDy=0;entryX=0.500;entryY=1.000;entryDx=0;entryDy=0;exitPerimeter=0;" parent="1" edge="1">
                    <mxGeometry width="50" height="50" relative="1" as="geometry">
                        <Array as="points">
                            <mxPoint x="1715" y="4260"/>
                        </Array>
                        <mxPoint x="1716.46" y="4260" as="sourcePoint"/>
                        <mxPoint x="1715" y="4201" as="targetPoint"/>
                    </mxGeometry>
                </mxCell>
                <mxCell id="label330" value="1" style="edgeLabel;resizable=0;html=1;align=left;verticalAlign=top;strokeColor=default;rotation=0;" parent="edge55" vertex="1" connectable="0">
                    <mxGeometry x="1700" y="4240" as="geometry"/>
                </mxCell>
                <mxCell id="label334" value="1" style="edgeLabel;resizable=0;html=1;align=left;verticalAlign=top;strokeColor=default;" parent="edge55" vertex="1" connectable="0">
                    <mxGeometry x="1700" y="4194" as="geometry"/>
                </mxCell>
                <mxCell id="edge10" value="" style="html=1;rounded=1;edgeStyle=orthogonalEdgeStyle;dashed=0;startArrow=diamondThinstartSize=12;endArrow=openThin;endSize=12;strokeColor=#595959;exitX=1.000;exitY=0.500;exitDx=0;exitDy=0;entryX=0.500;entryY=1.000;entryDx=0;entryDy=0;" parent="1" source="node30" target="node39" edge="1">
                    <mxGeometry width="50" height="50" relative="1" as="geometry">
                        <Array as="points">
                            <mxPoint x="3544" y="2831"/>
                        </Array>
                    </mxGeometry>
                </mxCell>
                <mxCell id="label60" value="1" style="edgeLabel;resizable=0;html=1;align=left;verticalAlign=top;strokeColor=default;" parent="edge10" vertex="1" connectable="0">
                    <mxGeometry x="3260" y="2800" as="geometry"/>
                </mxCell>
                <mxCell id="label64" value="*" style="edgeLabel;resizable=0;html=1;align=left;verticalAlign=top;strokeColor=default;" parent="edge10" vertex="1" connectable="0">
                    <mxGeometry x="3529" y="1760" as="geometry"/>
                </mxCell>
                <mxCell id="edge4" value="" style="html=1;rounded=1;edgeStyle=orthogonalEdgeStyle;dashed=1;startArrow=none;endArrow=block;endSize=12;strokeColor=#008200;exitX=0.500;exitY=0.000;exitDx=0;exitDy=0;entryX=1.006;entryY=0.542;entryDx=0;entryDy=0;entryPerimeter=0;" parent="1" source="node30" target="node18" edge="1">
                    <mxGeometry width="50" height="50" relative="1" as="geometry">
                        <Array as="points">
                            <mxPoint x="3016" y="2412"/>
                        </Array>
                    </mxGeometry>
                </mxCell>
                <mxCell id="edge43" value="" style="html=1;rounded=1;edgeStyle=orthogonalEdgeStyle;dashed=0;startArrow=diamondThinstartSize=12;endArrow=openThin;endSize=12;strokeColor=#595959;exitX=0.442;exitY=0.000;exitDx=0;exitDy=0;entryX=0.500;entryY=1.000;entryDx=0;entryDy=0;" parent="1" source="node42" target="node37" edge="1">
                    <mxGeometry width="50" height="50" relative="1" as="geometry">
                        <Array as="points"/>
                    </mxGeometry>
                </mxCell>
                <mxCell id="label258" value="1" style="edgeLabel;resizable=0;html=1;align=left;verticalAlign=top;strokeColor=default;" parent="edge43" vertex="1" connectable="0">
                    <mxGeometry x="1691" y="3707" as="geometry"/>
                </mxCell>
                <mxCell id="label262" value="1" style="edgeLabel;resizable=0;html=1;align=left;verticalAlign=top;strokeColor=default;" parent="edge43" vertex="1" connectable="0">
                    <mxGeometry x="1691" y="3691" as="geometry"/>
                </mxCell>
                <mxCell id="edge54" value="" style="html=1;rounded=1;edgeStyle=orthogonalEdgeStyle;dashed=0;startArrow=diamondThinstartSize=12;endArrow=openThin;endSize=12;strokeColor=#595959;exitX=0.500;exitY=0.000;exitDx=0;exitDy=0;entryX=0.500;entryY=1.000;entryDx=0;entryDy=0;" parent="1" source="node50" target="node27" edge="1">
                    <mxGeometry width="50" height="50" relative="1" as="geometry">
                        <Array as="points"/>
                    </mxGeometry>
                </mxCell>
                <mxCell id="label324" value="1" style="edgeLabel;resizable=0;html=1;align=left;verticalAlign=top;strokeColor=default;" parent="edge54" vertex="1" connectable="0">
                    <mxGeometry x="3802" y="4345" as="geometry"/>
                </mxCell>
                <mxCell id="label328" value="1" style="edgeLabel;resizable=0;html=1;align=left;verticalAlign=top;strokeColor=default;" parent="edge54" vertex="1" connectable="0">
                    <mxGeometry x="3802" y="4050" as="geometry"/>
                </mxCell>
                <mxCell id="edge40" value="" style="html=1;rounded=1;edgeStyle=orthogonalEdgeStyle;dashed=0;startArrow=diamondThinstartSize=12;endArrow=openThin;endSize=12;strokeColor=#595959;exitX=0.983;exitY=0.000;exitDx=0;exitDy=0;entryX=0.407;entryY=1.000;entryDx=0;entryDy=0;" parent="1" source="node39" target="node22" edge="1">
                    <mxGeometry width="50" height="50" relative="1" as="geometry">
                        <Array as="points"/>
                    </mxGeometry>
                </mxCell>
                <mxCell id="label240" value="1" style="edgeLabel;resizable=0;html=1;align=left;verticalAlign=top;strokeColor=default;" parent="edge40" vertex="1" connectable="0">
                    <mxGeometry x="3740" y="370" as="geometry"/>
                </mxCell>
                <mxCell id="label244" value="1" style="edgeLabel;resizable=0;html=1;align=left;verticalAlign=top;strokeColor=default;" parent="edge40" vertex="1" connectable="0">
                    <mxGeometry x="3740" y="1080" as="geometry"/>
                </mxCell>
                <mxCell id="edge70" value="" style="html=1;rounded=1;edgeStyle=orthogonalEdgeStyle;dashed=0;startArrow=diamondThinstartSize=12;endArrow=openThin;endSize=12;strokeColor=#595959;exitX=0.000;exitY=0.763;exitDx=0;exitDy=0;entryX=1.000;entryY=0.500;entryDx=0;entryDy=0;" parent="1" source="node39" target="node31" edge="1">
                    <mxGeometry width="50" height="50" relative="1" as="geometry">
                        <Array as="points"/>
                    </mxGeometry>
                </mxCell>
                <mxCell id="label420" value="1" style="edgeLabel;resizable=0;html=1;align=left;verticalAlign=top;strokeColor=default;" parent="edge70" vertex="1" connectable="0">
                    <mxGeometry x="3310" y="1590" as="geometry"/>
                </mxCell>
                <mxCell id="label424" value="1" style="edgeLabel;resizable=0;html=1;align=left;verticalAlign=top;strokeColor=default;" parent="edge70" vertex="1" connectable="0">
                    <mxGeometry x="2700" y="1560" as="geometry"/>
                </mxCell>
                <mxCell id="edge48" value="" style="html=1;rounded=1;edgeStyle=orthogonalEdgeStyle;dashed=0;startArrow=diamondThinstartSize=12;endArrow=openThin;endSize=12;strokeColor=#595959;exitX=0.242;exitY=0.000;exitDx=0;exitDy=0;entryX=0.500;entryY=1.000;entryDx=0;entryDy=0;" parent="1" source="node39" target="node41" edge="1">
                    <mxGeometry width="50" height="50" relative="1" as="geometry">
                        <Array as="points"/>
                    </mxGeometry>
                </mxCell>
                <mxCell id="label288" value="1" style="edgeLabel;resizable=0;html=1;align=left;verticalAlign=top;strokeColor=default;" parent="edge48" vertex="1" connectable="0">
                    <mxGeometry x="3415" y="1061" as="geometry"/>
                </mxCell>
                <mxCell id="label292" value="1" style="edgeLabel;resizable=0;html=1;align=left;verticalAlign=top;strokeColor=default;" parent="edge48" vertex="1" connectable="0">
                    <mxGeometry x="3410" y="940" as="geometry"/>
                </mxCell>
                <mxCell id="edge44" value="" style="html=1;rounded=1;edgeStyle=orthogonalEdgeStyle;dashed=0;startArrow=diamondThinstartSize=12;endArrow=openThin;endSize=12;strokeColor=#595959;exitX=0.000;exitY=0.500;exitDx=0;exitDy=0;" parent="1" source="node39" edge="1">
                    <mxGeometry width="50" height="50" relative="1" as="geometry">
                        <Array as="points">
                            <mxPoint x="3222" y="1424"/>
                            <mxPoint x="3222" y="172"/>
                        </Array>
                        <mxPoint x="3140" y="172" as="targetPoint"/>
                    </mxGeometry>
                </mxCell>
                <mxCell id="label264" value="1" style="edgeLabel;resizable=0;html=1;align=left;verticalAlign=top;strokeColor=default;" parent="edge44" vertex="1" connectable="0">
                    <mxGeometry x="3307" y="1420" as="geometry"/>
                </mxCell>
                <mxCell id="label268" value="1" style="edgeLabel;resizable=0;html=1;align=left;verticalAlign=top;strokeColor=default;" parent="edge44" vertex="1" connectable="0">
                    <mxGeometry x="3169" y="190" as="geometry"/>
                </mxCell>
                <mxCell id="edge9" value="" style="html=1;rounded=1;edgeStyle=orthogonalEdgeStyle;dashed=0;startArrow=diamondThinstartSize=12;endArrow=openThin;endSize=12;strokeColor=#595959;exitX=0.554;exitY=0.000;exitDx=0;exitDy=0;entryX=0.461;entryY=0.000;entryDx=0;entryDy=0;" parent="1" source="node39" target="node23" edge="1">
                    <mxGeometry width="50" height="50" relative="1" as="geometry">
                        <Array as="points">
                            <mxPoint x="3567" y="27"/>
                            <mxPoint x="1678" y="27"/>
                        </Array>
                    </mxGeometry>
                </mxCell>
                <mxCell id="label54" value="1" style="edgeLabel;resizable=0;html=1;align=left;verticalAlign=top;strokeColor=default;" parent="edge9" vertex="1" connectable="0">
                    <mxGeometry x="4630" y="680" as="geometry">
                        <mxPoint x="-1051" y="398" as="offset"/>
                    </mxGeometry>
                </mxCell>
                <mxCell id="label58" value="1" style="edgeLabel;resizable=0;html=1;align=left;verticalAlign=top;strokeColor=default;" parent="edge9" vertex="1" connectable="0">
                    <mxGeometry x="1690" y="460" as="geometry"/>
                </mxCell>
                <mxCell id="edge18" value="" style="html=1;rounded=1;edgeStyle=orthogonalEdgeStyle;dashed=0;startArrow=diamondThinstartSize=12;endArrow=openThin;endSize=12;strokeColor=#595959;exitX=0.539;exitY=0.000;exitDx=0;exitDy=0;entryX=0.993;entryY=0.446;entryDx=0;entryDy=0;entryPerimeter=0;" parent="1" source="node31" target="node9" edge="1">
                    <mxGeometry width="50" height="50" relative="1" as="geometry">
                        <Array as="points">
                            <mxPoint x="2504" y="189"/>
                        </Array>
                    </mxGeometry>
                </mxCell>
                <mxCell id="label108" value="1" style="edgeLabel;resizable=0;html=1;align=left;verticalAlign=top;strokeColor=default;" parent="edge18" vertex="1" connectable="0">
                    <mxGeometry x="2492" y="1068" as="geometry"/>
                </mxCell>
                <mxCell id="label112" value="1" style="edgeLabel;resizable=0;html=1;align=left;verticalAlign=top;strokeColor=default;" parent="edge18" vertex="1" connectable="0">
                    <mxGeometry x="2280" y="186" as="geometry"/>
                </mxCell>
                <mxCell id="edge24" value="" style="html=1;rounded=1;edgeStyle=orthogonalEdgeStyle;dashed=0;startArrow=diamondThinstartSize=12;endArrow=openThin;endSize=12;strokeColor=#595959;exitX=0.500;exitY=0.000;exitDx=0;exitDy=0;entryX=0.999;entryY=0.66;entryDx=0;entryDy=0;entryPerimeter=0;" parent="1" edge="1">
                    <mxGeometry width="50" height="50" relative="1" as="geometry">
                        <Array as="points">
                            <mxPoint x="2489.38" y="860.01"/>
                        </Array>
                        <mxPoint x="2489.38" y="1090.0100000000002" as="sourcePoint"/>
                        <mxPoint x="1883.998" y="859.6300000000001" as="targetPoint"/>
                    </mxGeometry>
                </mxCell>
                <mxCell id="label144" value="1" style="edgeLabel;resizable=0;html=1;align=left;verticalAlign=top;strokeColor=default;" parent="edge24" vertex="1" connectable="0">
                    <mxGeometry x="2477" y="1068" as="geometry"/>
                </mxCell>
                <mxCell id="label148" value="1...10" style="edgeLabel;resizable=0;html=1;align=left;verticalAlign=top;strokeColor=default;" parent="edge24" vertex="1" connectable="0">
                    <mxGeometry x="1920" y="840" as="geometry"/>
                </mxCell>
                <mxCell id="edge32" value="" style="html=1;rounded=1;edgeStyle=orthogonalEdgeStyle;dashed=0;startArrow=diamondThinstartSize=12;endArrow=openThin;endSize=12;strokeColor=#595959;exitX=0.500;exitY=0.000;exitDx=0;exitDy=0;" parent="1" source="node41" edge="1">
                    <mxGeometry width="50" height="50" relative="1" as="geometry">
                        <Array as="points">
                            <mxPoint x="3430" y="156"/>
                        </Array>
                        <mxPoint x="3140" y="156" as="targetPoint"/>
                    </mxGeometry>
                </mxCell>
                <mxCell id="label192" value="1" style="edgeLabel;resizable=0;html=1;align=left;verticalAlign=top;strokeColor=default;" parent="edge32" vertex="1" connectable="0">
                    <mxGeometry x="3418" y="794" as="geometry"/>
                </mxCell>
                <mxCell id="label196" value="1" style="edgeLabel;resizable=0;html=1;align=left;verticalAlign=top;strokeColor=default;" parent="edge32" vertex="1" connectable="0">
                    <mxGeometry x="3175" y="138" as="geometry"/>
                </mxCell>
                <mxCell id="edge58" value="" style="html=1;rounded=1;edgeStyle=orthogonalEdgeStyle;dashed=0;startArrow=diamondThinstartSize=12;endArrow=openThin;endSize=12;strokeColor=#595959;exitX=0.500;exitY=0.000;exitDx=0;exitDy=0;entryX=0.500;entryY=1.000;entryDx=0;entryDy=0;" parent="1" source="node5" target="node4" edge="1">
                    <mxGeometry width="50" height="50" relative="1" as="geometry">
                        <Array as="points"/>
                    </mxGeometry>
                </mxCell>
                <mxCell id="label348" value="1" style="edgeLabel;resizable=0;html=1;align=left;verticalAlign=top;strokeColor=default;" parent="edge58" vertex="1" connectable="0">
                    <mxGeometry x="1287" y="4329" as="geometry"/>
                </mxCell>
                <mxCell id="label352" value="1" style="edgeLabel;resizable=0;html=1;align=left;verticalAlign=top;strokeColor=default;" parent="edge58" vertex="1" connectable="0">
                    <mxGeometry x="1287" y="4081" as="geometry"/>
                </mxCell>
                <mxCell id="edge63" value="" style="html=1;rounded=1;edgeStyle=orthogonalEdgeStyle;dashed=0;startArrow=diamondThinstartSize=12;endArrow=openThin;endSize=12;strokeColor=#595959;exitX=0.500;exitY=0.000;exitDx=0;exitDy=0;entryX=0.500;entryY=1.000;entryDx=0;entryDy=0;" parent="1" source="node8" target="node20" edge="1">
                    <mxGeometry width="50" height="50" relative="1" as="geometry">
                        <Array as="points"/>
                    </mxGeometry>
                </mxCell>
                <mxCell id="label378" value="1" style="edgeLabel;resizable=0;html=1;align=left;verticalAlign=top;strokeColor=default;" parent="edge63" vertex="1" connectable="0">
                    <mxGeometry x="1635" y="1621" as="geometry"/>
                </mxCell>
                <mxCell id="label382" value="1" style="edgeLabel;resizable=0;html=1;align=left;verticalAlign=top;strokeColor=default;" parent="edge63" vertex="1" connectable="0">
                    <mxGeometry x="1620" y="1550" as="geometry"/>
                </mxCell>
                <mxCell id="edge30" value="" style="html=1;rounded=1;edgeStyle=orthogonalEdgeStyle;dashed=0;startArrow=diamondThinstartSize=12;endArrow=openThin;endSize=12;strokeColor=#595959;exitX=0.500;exitY=0.000;exitDx=0;exitDy=0;entryX=0.500;entryY=1.000;entryDx=0;entryDy=0;" parent="1" source="node33" target="node8" edge="1">
                    <mxGeometry width="50" height="50" relative="1" as="geometry">
                        <Array as="points"/>
                    </mxGeometry>
                </mxCell>
                <mxCell id="label180" value="1" style="edgeLabel;resizable=0;html=1;align=left;verticalAlign=top;strokeColor=default;" parent="edge30" vertex="1" connectable="0">
                    <mxGeometry x="1635" y="2713" as="geometry"/>
                </mxCell>
                <mxCell id="label184" value="*" style="edgeLabel;resizable=0;html=1;align=left;verticalAlign=top;strokeColor=default;" parent="edge30" vertex="1" connectable="0">
                    <mxGeometry x="1637" y="2080" as="geometry"/>
                </mxCell>
                <mxCell id="edge6" value="" style="html=1;rounded=1;edgeStyle=orthogonalEdgeStyle;dashed=1;startArrow=none;endArrow=block;endSize=12;strokeColor=#008200;exitX=0.543;exitY=0.000;exitDx=0;exitDy=0;entryX=-0.003;entryY=0.594;entryDx=0;entryDy=0;entryPerimeter=0;" parent="1" source="node33" target="node18" edge="1">
                    <mxGeometry width="50" height="50" relative="1" as="geometry">
                        <Array as="points">
                            <mxPoint x="1662" y="2420"/>
                        </Array>
                        <mxPoint x="2190" y="2420" as="targetPoint"/>
                    </mxGeometry>
                </mxCell>
                <mxCell id="edge42" value="" style="html=1;rounded=1;edgeStyle=orthogonalEdgeStyle;dashed=0;startArrow=diamondThinstartSize=12;endArrow=openThin;endSize=12;strokeColor=#595959;exitX=0.477;exitY=0.000;exitDx=0;exitDy=0;" parent="1" source="node4" edge="1">
                    <mxGeometry width="50" height="50" relative="1" as="geometry">
                        <Array as="points">
                            <mxPoint x="1292" y="3471"/>
                        </Array>
                        <mxPoint x="1480" y="3471" as="targetPoint"/>
                    </mxGeometry>
                </mxCell>
                <mxCell id="label252" value="1" style="edgeLabel;resizable=0;html=1;align=left;verticalAlign=top;strokeColor=default;" parent="edge42" vertex="1" connectable="0">
                    <mxGeometry x="1280" y="3835" as="geometry"/>
                </mxCell>
                <mxCell id="label256" value="1" style="edgeLabel;resizable=0;html=1;align=left;verticalAlign=top;strokeColor=default;" parent="edge42" vertex="1" connectable="0">
                    <mxGeometry x="1446" y="3452" as="geometry"/>
                </mxCell>
                <mxCell id="edge7" value="" style="html=1;rounded=1;edgeStyle=orthogonalEdgeStyle;dashed=0;startArrow=none;endArrow=block;endSize=12;strokeColor=#000082;entryX=0.000;entryY=0.220;entryDx=0;entryDy=0;exitX=1.001;exitY=0.464;exitDx=0;exitDy=0;exitPerimeter=0;" parent="1" source="node26" target="node23" edge="1">
                    <mxGeometry width="50" height="50" relative="1" as="geometry">
                        <Array as="points">
                            <mxPoint x="1380" y="613"/>
                        </Array>
                        <mxPoint x="1380" y="620" as="sourcePoint"/>
                    </mxGeometry>
                </mxCell>
                <mxCell id="edge67" value="" style="html=1;rounded=1;edgeStyle=orthogonalEdgeStyle;dashed=0;startArrow=diamondThinstartSize=12;endArrow=openThin;endSize=12;strokeColor=#595959;entryX=0.506;entryY=1.002;entryDx=0;entryDy=0;entryPerimeter=0;" parent="1" target="node28" edge="1">
                    <mxGeometry width="50" height="50" relative="1" as="geometry">
                        <Array as="points"/>
                        <mxPoint x="1718" y="4870" as="sourcePoint"/>
                    </mxGeometry>
                </mxCell>
                <mxCell id="label402" value="1" style="edgeLabel;resizable=0;html=1;align=left;verticalAlign=top;strokeColor=default;" parent="edge67" vertex="1" connectable="0">
                    <mxGeometry x="1704" y="4847" as="geometry"/>
                </mxCell>
                <mxCell id="label406" value="1" style="edgeLabel;resizable=0;html=1;align=left;verticalAlign=top;strokeColor=default;" parent="edge67" vertex="1" connectable="0">
                    <mxGeometry x="1704" y="4720" as="geometry"/>
                </mxCell>
                <mxCell id="edge38" value="" style="html=1;rounded=1;edgeStyle=orthogonalEdgeStyle;dashed=0;startArrow=diamondThinstartSize=12;endArrow=openThin;endSize=12;strokeColor=#595959;exitX=0.000;exitY=0.073;exitDx=0;exitDy=0;entryX=0.550;entryY=1.000;entryDx=0;entryDy=0;" parent="1" source="node13" target="node5" edge="1">
                    <mxGeometry width="50" height="50" relative="1" as="geometry">
                        <Array as="points">
                            <mxPoint x="1314" y="4919"/>
                        </Array>
                    </mxGeometry>
                </mxCell>
                <mxCell id="label228" value="1" style="edgeLabel;resizable=0;html=1;align=left;verticalAlign=top;strokeColor=default;" parent="edge38" vertex="1" connectable="0">
                    <mxGeometry x="1580" y="4915" as="geometry"/>
                </mxCell>
                <mxCell id="label232" value="1" style="edgeLabel;resizable=0;html=1;align=left;verticalAlign=top;strokeColor=default;" parent="edge38" vertex="1" connectable="0">
                    <mxGeometry x="1302" y="4600" as="geometry"/>
                </mxCell>
                <mxCell id="edge33" value="" style="html=1;rounded=1;edgeStyle=orthogonalEdgeStyle;dashed=0;startArrow=diamondThinstartSize=12;endArrow=openThin;endSize=12;strokeColor=#595959;exitX=0.982;exitY=0.000;exitDx=0;exitDy=0;entryX=0.095;entryY=1.000;entryDx=0;entryDy=0;" parent="1" source="node13" target="node35" edge="1">
                    <mxGeometry width="50" height="50" relative="1" as="geometry">
                        <Array as="points"/>
                    </mxGeometry>
                </mxCell>
                <mxCell id="label198" value="1" style="edgeLabel;resizable=0;html=1;align=left;verticalAlign=top;strokeColor=default;" parent="edge33" vertex="1" connectable="0">
                    <mxGeometry x="1999" y="4850" as="geometry"/>
                </mxCell>
                <mxCell id="label202" value="1" style="edgeLabel;resizable=0;html=1;align=left;verticalAlign=top;strokeColor=default;" parent="edge33" vertex="1" connectable="0">
                    <mxGeometry x="1999" y="4560" as="geometry"/>
                </mxCell>
                <mxCell id="edge39" value="" style="html=1;rounded=1;edgeStyle=orthogonalEdgeStyle;dashed=0;startArrow=diamondThinstartSize=12;endArrow=openThin;endSize=12;strokeColor=#595959;exitX=0.000;exitY=0.118;exitDx=0;exitDy=0;entryX=0.538;entryY=1.000;entryDx=0;entryDy=0;" parent="1" source="node13" target="node14" edge="1">
                    <mxGeometry width="50" height="50" relative="1" as="geometry">
                        <Array as="points">
                            <mxPoint x="601" y="4949"/>
                        </Array>
                    </mxGeometry>
                </mxCell>
                <mxCell id="label234" value="1" style="edgeLabel;resizable=0;html=1;align=left;verticalAlign=top;strokeColor=default;" parent="edge39" vertex="1" connectable="0">
                    <mxGeometry x="1580" y="4900" as="geometry"/>
                </mxCell>
                <mxCell id="label238" value="1" style="edgeLabel;resizable=0;html=1;align=left;verticalAlign=top;strokeColor=default;" parent="edge39" vertex="1" connectable="0">
                    <mxGeometry x="610" y="4580" as="geometry"/>
                </mxCell>
                <mxCell id="edge59" value="" style="html=1;rounded=1;edgeStyle=orthogonalEdgeStyle;dashed=0;startArrow=diamondThinstartSize=12;endArrow=openThin;endSize=12;strokeColor=#595959;exitX=1.000;exitY=0.522;exitDx=0;exitDy=0;entryX=0.500;entryY=1.000;entryDx=0;entryDy=0;" parent="1" source="node13" target="node15" edge="1">
                    <mxGeometry width="50" height="50" relative="1" as="geometry">
                        <Array as="points">
                            <mxPoint x="2882" y="5219"/>
                        </Array>
                    </mxGeometry>
                </mxCell>
                <mxCell id="label354" value="1" style="edgeLabel;resizable=0;html=1;align=left;verticalAlign=top;strokeColor=default;" parent="edge59" vertex="1" connectable="0">
                    <mxGeometry x="2024" y="5203" as="geometry"/>
                </mxCell>
                <mxCell id="label358" value="1" style="edgeLabel;resizable=0;html=1;align=left;verticalAlign=top;strokeColor=default;" parent="edge59" vertex="1" connectable="0">
                    <mxGeometry x="2870" y="4598" as="geometry"/>
                </mxCell>
                <mxCell id="edge13" value="" style="html=1;rounded=1;edgeStyle=orthogonalEdgeStyle;dashed=0;startArrow=diamondThinstartSize=12;endArrow=openThin;endSize=12;strokeColor=#595959;exitX=0.000;exitY=0.095;exitDx=0;exitDy=0;entryX=0.941;entryY=1.000;entryDx=0;entryDy=0;" parent="1" source="node13" target="node11" edge="1">
                    <mxGeometry width="50" height="50" relative="1" as="geometry">
                        <Array as="points">
                            <mxPoint x="1108" y="4934"/>
                        </Array>
                    </mxGeometry>
                </mxCell>
                <mxCell id="label78" value="1" style="edgeLabel;resizable=0;html=1;align=left;verticalAlign=top;strokeColor=default;" parent="edge13" vertex="1" connectable="0">
                    <mxGeometry x="1580" y="4930" as="geometry"/>
                </mxCell>
                <mxCell id="label82" value="1" style="edgeLabel;resizable=0;html=1;align=left;verticalAlign=top;strokeColor=default;" parent="edge13" vertex="1" connectable="0">
                    <mxGeometry x="1096" y="4577" as="geometry"/>
                </mxCell>
                <mxCell id="edge14" value="" style="html=1;rounded=1;edgeStyle=orthogonalEdgeStyle;dashed=0;startArrow=diamondThinstartSize=12;endArrow=openThin;endSize=12;strokeColor=#595959;exitX=1.000;exitY=0.500;exitDx=0;exitDy=0;entryX=0.500;entryY=1.000;entryDx=0;entryDy=0;" parent="1" source="node13" target="node3" edge="1">
                    <mxGeometry width="50" height="50" relative="1" as="geometry">
                        <Array as="points">
                            <mxPoint x="2486" y="5204"/>
                        </Array>
                    </mxGeometry>
                </mxCell>
                <mxCell id="label84" value="1" style="edgeLabel;resizable=0;html=1;align=left;verticalAlign=top;strokeColor=default;" parent="edge14" vertex="1" connectable="0">
                    <mxGeometry x="2050" y="5188" as="geometry"/>
                </mxCell>
                <mxCell id="label88" value="1" style="edgeLabel;resizable=0;html=1;align=left;verticalAlign=top;strokeColor=default;" parent="edge14" vertex="1" connectable="0">
                    <mxGeometry x="2470" y="4560" as="geometry"/>
                </mxCell>
                <mxCell id="edge71" value="" style="html=1;rounded=1;edgeStyle=orthogonalEdgeStyle;dashed=0;startArrow=diamondThinstartSize=12;endArrow=openThin;endSize=12;strokeColor=#595959;exitX=0.000;exitY=0.905;exitDx=0;exitDy=0;" parent="1" source="node13" edge="1">
                    <mxGeometry width="50" height="50" relative="1" as="geometry">
                        <Array as="points">
                            <mxPoint x="-278" y="5474"/>
                            <mxPoint x="-278" y="4450"/>
                        </Array>
                        <mxPoint x="-202" y="4450" as="targetPoint"/>
                    </mxGeometry>
                </mxCell>
                <mxCell id="label426" value="1" style="edgeLabel;resizable=0;html=1;align=left;verticalAlign=top;strokeColor=default;" parent="edge71" vertex="1" connectable="0">
                    <mxGeometry x="1580" y="5470" as="geometry"/>
                </mxCell>
                <mxCell id="label430" value="1" style="edgeLabel;resizable=0;html=1;align=left;verticalAlign=top;strokeColor=default;" parent="edge71" vertex="1" connectable="0">
                    <mxGeometry x="-228" y="4434" as="geometry"/>
                </mxCell>
                <mxCell id="edge5" value="" style="html=1;rounded=1;edgeStyle=orthogonalEdgeStyle;dashed=0;startArrow=none;endArrow=block;endSize=12;strokeColor=#000082;exitX=0.561;exitY=0.000;exitDx=0;exitDy=0;entryX=0.500;entryY=1.000;entryDx=0;entryDy=0;" parent="1" source="node47" target="node32" edge="1">
                    <mxGeometry width="50" height="50" relative="1" as="geometry">
                        <Array as="points"/>
                    </mxGeometry>
                </mxCell>
                <mxCell id="edge26" value="" style="html=1;rounded=1;edgeStyle=orthogonalEdgeStyle;dashed=0;startArrow=diamondThinstartSize=12;endArrow=openThin;endSize=12;strokeColor=#595959;exitX=0.000;exitY=0.500;exitDx=0;exitDy=0;entryX=1.000;entryY=0.706;entryDx=0;entryDy=0;" parent="1" source="node47" target="node31" edge="1">
                    <mxGeometry width="50" height="50" relative="1" as="geometry">
                        <Array as="points"/>
                    </mxGeometry>
                </mxCell>
                <mxCell id="label156" value="1" style="edgeLabel;resizable=0;html=1;align=left;verticalAlign=top;strokeColor=default;" parent="edge26" vertex="1" connectable="0">
                    <mxGeometry x="2748" y="1796" as="geometry"/>
                </mxCell>
                <mxCell id="label160" value="1" style="edgeLabel;resizable=0;html=1;align=left;verticalAlign=top;strokeColor=default;" parent="edge26" vertex="1" connectable="0">
                    <mxGeometry x="2692" y="1796" as="geometry"/>
                </mxCell>
                <mxCell id="edge50" value="" style="html=1;rounded=1;edgeStyle=orthogonalEdgeStyle;dashed=0;startArrow=diamondThinstartSize=12;endArrow=openThin;endSize=12;strokeColor=#595959;exitX=1.000;exitY=0.500;exitDx=0;exitDy=0;entryX=1.006;entryY=0.631;entryDx=0;entryDy=0;entryPerimeter=0;" parent="1" source="node47" target="node12" edge="1">
                    <mxGeometry width="50" height="50" relative="1" as="geometry">
                        <Array as="points">
                            <mxPoint x="3192" y="1799"/>
                            <mxPoint x="3192" y="186"/>
                        </Array>
                    </mxGeometry>
                </mxCell>
                <mxCell id="label300" value="1" style="edgeLabel;resizable=0;html=1;align=left;verticalAlign=top;strokeColor=default;" parent="edge50" vertex="1" connectable="0">
                    <mxGeometry x="3140" y="1770" as="geometry"/>
                </mxCell>
                <mxCell id="label304" value="1" style="edgeLabel;resizable=0;html=1;align=left;verticalAlign=top;strokeColor=default;" parent="edge50" vertex="1" connectable="0">
                    <mxGeometry x="3173" y="168" as="geometry"/>
                </mxCell>
                <mxCell id="edge72" value="" style="html=1;rounded=1;edgeStyle=orthogonalEdgeStyle;dashed=0;startArrow=diamondThinstartSize=12;endArrow=openThin;endSize=12;strokeColor=#595959;entryX=0.095;entryY=1.013;entryDx=0;entryDy=0;entryPerimeter=0;exitX=0.871;exitY=0.002;exitDx=0;exitDy=0;exitPerimeter=0;" parent="1" source="node1" target="node5" edge="1">
                    <mxGeometry width="50" height="50" relative="1" as="geometry">
                        <Array as="points">
                            <mxPoint x="740" y="4660"/>
                            <mxPoint x="1176" y="4660"/>
                        </Array>
                    </mxGeometry>
                </mxCell>
                <mxCell id="label432" value="1" style="edgeLabel;resizable=0;html=1;align=left;verticalAlign=top;strokeColor=default;" parent="edge72" vertex="1" connectable="0">
                    <mxGeometry x="750" y="4940" as="geometry"/>
                </mxCell>
                <mxCell id="label436" value="1" style="edgeLabel;resizable=0;html=1;align=left;verticalAlign=top;strokeColor=default;" parent="edge72" vertex="1" connectable="0">
                    <mxGeometry x="1180" y="4610" as="geometry"/>
                </mxCell>
                <mxCell id="edge65" value="" style="html=1;rounded=1;edgeStyle=orthogonalEdgeStyle;dashed=0;startArrow=diamondThinstartSize=12;endArrow=openThin;endSize=12;strokeColor=#595959;exitX=0.489;exitY=0.000;exitDx=0;exitDy=0;entryX=0.500;entryY=1.000;entryDx=0;entryDy=0;" parent="1" source="node1" target="node14" edge="1">
                    <mxGeometry width="50" height="50" relative="1" as="geometry">
                        <Array as="points"/>
                    </mxGeometry>
                </mxCell>
                <mxCell id="label390" value="1" style="edgeLabel;resizable=0;html=1;align=left;verticalAlign=top;strokeColor=default;" parent="edge65" vertex="1" connectable="0">
                    <mxGeometry x="574" y="4923" as="geometry"/>
                </mxCell>
                <mxCell id="label394" value="1" style="edgeLabel;resizable=0;html=1;align=left;verticalAlign=top;strokeColor=default;" parent="edge65" vertex="1" connectable="0">
                    <mxGeometry x="574" y="4573" as="geometry"/>
                </mxCell>
                <mxCell id="edge21" value="" style="html=1;rounded=1;edgeStyle=orthogonalEdgeStyle;dashed=0;startArrow=diamondThinstartSize=12;endArrow=openThin;endSize=12;strokeColor=#595959;exitX=0.500;exitY=1.000;exitDx=0;exitDy=0;entryX=0.599;entryY=1.000;entryDx=0;entryDy=0;" parent="1" source="node1" target="node35" edge="1">
                    <mxGeometry width="50" height="50" relative="1" as="geometry">
                        <Array as="points">
                            <mxPoint x="590" y="5585"/>
                            <mxPoint x="2164" y="5585"/>
                        </Array>
                    </mxGeometry>
                </mxCell>
                <mxCell id="label126" value="1" style="edgeLabel;resizable=0;html=1;align=left;verticalAlign=top;strokeColor=default;" parent="edge21" vertex="1" connectable="0">
                    <mxGeometry x="590" y="5440" as="geometry"/>
                </mxCell>
                <mxCell id="label130" value="1" style="edgeLabel;resizable=0;html=1;align=left;verticalAlign=top;strokeColor=default;" parent="edge21" vertex="1" connectable="0">
                    <mxGeometry x="2170" y="4560" as="geometry"/>
                </mxCell>
                <mxCell id="edge73" value="" style="html=1;rounded=1;edgeStyle=orthogonalEdgeStyle;dashed=0;startArrow=diamondThinstartSize=12;endArrow=openThin;endSize=12;strokeColor=#595959;exitX=1.000;exitY=0.500;exitDx=0;exitDy=0;entryX=0.500;entryY=1.000;entryDx=0;entryDy=0;" parent="1" source="node1" target="node11" edge="1">
                    <mxGeometry width="50" height="50" relative="1" as="geometry">
                        <Array as="points">
                            <mxPoint x="964" y="5204"/>
                        </Array>
                    </mxGeometry>
                </mxCell>
                <mxCell id="label438" value="1" style="edgeLabel;resizable=0;html=1;align=left;verticalAlign=top;strokeColor=default;" parent="edge73" vertex="1" connectable="0">
                    <mxGeometry x="802" y="5188" as="geometry"/>
                </mxCell>
                <mxCell id="label442" value="1" style="edgeLabel;resizable=0;html=1;align=left;verticalAlign=top;strokeColor=default;" parent="edge73" vertex="1" connectable="0">
                    <mxGeometry x="952" y="4585" as="geometry"/>
                </mxCell>
                <mxCell id="edge41" value="" style="html=1;rounded=1;edgeStyle=orthogonalEdgeStyle;dashed=0;startArrow=diamondThinstartSize=12;endArrow=openThin;endSize=12;strokeColor=#595959;exitX=0.000;exitY=0.500;exitDx=0;exitDy=0;" parent="1" source="node1" edge="1">
                    <mxGeometry width="50" height="50" relative="1" as="geometry">
                        <Array as="points">
                            <mxPoint x="249" y="5204"/>
                        </Array>
                        <mxPoint x="249" y="4570" as="targetPoint"/>
                    </mxGeometry>
                </mxCell>
                <mxCell id="label246" value="1" style="edgeLabel;resizable=0;html=1;align=left;verticalAlign=top;strokeColor=default;" parent="edge41" vertex="1" connectable="0">
                    <mxGeometry x="365" y="5200" as="geometry"/>
                </mxCell>
                <mxCell id="label250" value="1" style="edgeLabel;resizable=0;html=1;align=left;verticalAlign=top;strokeColor=default;" parent="edge41" vertex="1" connectable="0">
                    <mxGeometry x="237" y="4597" as="geometry"/>
                </mxCell>
                <mxCell id="edge27" value="" style="html=1;rounded=1;edgeStyle=orthogonalEdgeStyle;dashed=0;startArrow=diamondThinstartSize=12;endArrow=openThin;endSize=12;strokeColor=#595959;exitX=0.500;exitY=0.000;exitDx=0;exitDy=0;entryX=0.500;entryY=1.000;entryDx=0;entryDy=0;" parent="1" source="node25" target="node10" edge="1">
                    <mxGeometry width="50" height="50" relative="1" as="geometry">
                        <Array as="points"/>
                    </mxGeometry>
                </mxCell>
                <mxCell id="label162" value="1" style="edgeLabel;resizable=0;html=1;align=left;verticalAlign=top;strokeColor=default;" parent="edge27" vertex="1" connectable="0">
                    <mxGeometry x="3384" y="4348" as="geometry"/>
                </mxCell>
                <mxCell id="label166" value="1" style="edgeLabel;resizable=0;html=1;align=left;verticalAlign=top;strokeColor=default;" parent="edge27" vertex="1" connectable="0">
                    <mxGeometry x="3384" y="4100" as="geometry"/>
                </mxCell>
                <mxCell id="edge16" value="" style="html=1;rounded=1;edgeStyle=orthogonalEdgeStyle;dashed=0;startArrow=diamondThinstartSize=12;endArrow=openThin;endSize=12;strokeColor=#595959;exitX=0.500;exitY=0.000;exitDx=0;exitDy=0;entryX=0.500;entryY=1.000;entryDx=0;entryDy=0;" parent="1" source="node14" target="node6" edge="1">
                    <mxGeometry width="50" height="50" relative="1" as="geometry">
                        <Array as="points"/>
                    </mxGeometry>
                </mxCell>
                <mxCell id="label96" value="1" style="edgeLabel;resizable=0;html=1;align=left;verticalAlign=top;strokeColor=default;" parent="edge16" vertex="1" connectable="0">
                    <mxGeometry x="574" y="4355" as="geometry"/>
                </mxCell>
                <mxCell id="label100" value="1" style="edgeLabel;resizable=0;html=1;align=left;verticalAlign=top;strokeColor=default;" parent="edge16" vertex="1" connectable="0">
                    <mxGeometry x="574" y="4055" as="geometry"/>
                </mxCell>
                <mxCell id="edge49" value="" style="html=1;rounded=1;edgeStyle=orthogonalEdgeStyle;dashed=0;startArrow=diamondThinstartSize=12;endArrow=openThin;endSize=12;strokeColor=#595959;exitX=0.500;exitY=0.000;exitDx=0;exitDy=0;entryX=0.500;entryY=1.000;entryDx=0;entryDy=0;" parent="1" source="node0" target="node34" edge="1">
                    <mxGeometry width="50" height="50" relative="1" as="geometry">
                        <Array as="points">
                            <mxPoint x="2088" y="993"/>
                            <mxPoint x="2674" y="993"/>
                        </Array>
                    </mxGeometry>
                </mxCell>
                <mxCell id="label294" value="1" style="edgeLabel;resizable=0;html=1;align=left;verticalAlign=top;strokeColor=default;" parent="edge49" vertex="1" connectable="0">
                    <mxGeometry x="2076" y="1148" as="geometry"/>
                </mxCell>
                <mxCell id="label298" value="1" style="edgeLabel;resizable=0;html=1;align=left;verticalAlign=top;strokeColor=default;" parent="edge49" vertex="1" connectable="0">
                    <mxGeometry x="2660" y="300" as="geometry"/>
                </mxCell>
                <mxCell id="edge25" value="" style="html=1;rounded=1;edgeStyle=orthogonalEdgeStyle;dashed=0;startArrow=diamondThinstartSize=12;endArrow=openThin;endSize=12;strokeColor=#595959;exitX=0.000;exitY=0.500;exitDx=0;exitDy=0;entryX=0.895;entryY=1.000;entryDx=0;entryDy=0;" parent="1" source="node0" target="node23" edge="1">
                    <mxGeometry width="50" height="50" relative="1" as="geometry">
                        <Array as="points">
                            <mxPoint x="1844" y="1356"/>
                        </Array>
                    </mxGeometry>
                </mxCell>
                <mxCell id="label150" value="1" style="edgeLabel;resizable=0;html=1;align=left;verticalAlign=top;strokeColor=default;" parent="edge25" vertex="1" connectable="0">
                    <mxGeometry x="1911" y="1352" as="geometry"/>
                </mxCell>
                <mxCell id="label154" value="1" style="edgeLabel;resizable=0;html=1;align=left;verticalAlign=top;strokeColor=default;" parent="edge25" vertex="1" connectable="0">
                    <mxGeometry x="1829" y="1050" as="geometry"/>
                </mxCell>
                <mxCell id="edge17" value="" style="html=1;rounded=1;edgeStyle=orthogonalEdgeStyle;dashed=0;startArrow=diamondThinstartSize=12;endArrow=openThin;endSize=12;strokeColor=#595959;exitX=0.500;exitY=0.000;exitDx=0;exitDy=0;entryX=0.422;entryY=1.000;entryDx=0;entryDy=0;" parent="1" source="node19" target="node0" edge="1">
                    <mxGeometry width="50" height="50" relative="1" as="geometry">
                        <Array as="points"/>
                    </mxGeometry>
                </mxCell>
                <mxCell id="label102" value="1" style="edgeLabel;resizable=0;html=1;align=left;verticalAlign=top;strokeColor=default;" parent="edge17" vertex="1" connectable="0">
                    <mxGeometry x="2052" y="2723" as="geometry"/>
                </mxCell>
                <mxCell id="label106" value="*" style="edgeLabel;resizable=0;html=1;align=left;verticalAlign=top;strokeColor=default;" parent="edge17" vertex="1" connectable="0">
                    <mxGeometry x="2052" y="1540" as="geometry"/>
                </mxCell>
                <mxCell id="edge1" value="" style="html=1;rounded=1;edgeStyle=orthogonalEdgeStyle;dashed=1;startArrow=none;endArrow=block;endSize=12;strokeColor=#008200;exitX=0.984;exitY=0.000;exitDx=0;exitDy=0;entryX=0.404;entryY=1.000;entryDx=0;entryDy=0;" parent="1" source="node19" target="node18" edge="1">
                    <mxGeometry width="50" height="50" relative="1" as="geometry">
                        <Array as="points"/>
                    </mxGeometry>
                </mxCell>
                <mxCell id="edge28" value="" style="html=1;rounded=1;edgeStyle=orthogonalEdgeStyle;dashed=0;startArrow=diamondThinstartSize=12;endArrow=openThin;endSize=12;strokeColor=#595959;exitX=0.480;exitY=0.000;exitDx=0;exitDy=0;" parent="1" source="node6" edge="1">
                    <mxGeometry width="50" height="50" relative="1" as="geometry">
                        <Array as="points">
                            <mxPoint x="578" y="3456"/>
                        </Array>
                        <mxPoint x="1480" y="3456" as="targetPoint"/>
                    </mxGeometry>
                </mxCell>
                <mxCell id="label168" value="1" style="edgeLabel;resizable=0;html=1;align=left;verticalAlign=top;strokeColor=default;" parent="edge28" vertex="1" connectable="0">
                    <mxGeometry x="566" y="3839" as="geometry"/>
                </mxCell>
                <mxCell id="label172" value="1" style="edgeLabel;resizable=0;html=1;align=left;verticalAlign=top;strokeColor=default;" parent="edge28" vertex="1" connectable="0">
                    <mxGeometry x="1450" y="3420" as="geometry"/>
                </mxCell>
                <mxCell id="edge34" value="" style="html=1;rounded=1;edgeStyle=orthogonalEdgeStyle;dashed=0;startArrow=diamondThinstartSize=12;endArrow=openThin;endSize=12;strokeColor=#595959;exitX=0.500;exitY=0.000;exitDx=0;exitDy=0;entryX=0.500;entryY=1.000;entryDx=0;entryDy=0;" parent="1" source="node35" target="node48" edge="1">
                    <mxGeometry width="50" height="50" relative="1" as="geometry">
                        <Array as="points"/>
                    </mxGeometry>
                </mxCell>
                <mxCell id="label204" value="1" style="edgeLabel;resizable=0;html=1;align=left;verticalAlign=top;strokeColor=default;" parent="edge34" vertex="1" connectable="0">
                    <mxGeometry x="2122" y="4370" as="geometry"/>
                </mxCell>
                <mxCell id="label208" value="1" style="edgeLabel;resizable=0;html=1;align=left;verticalAlign=top;strokeColor=default;" parent="edge34" vertex="1" connectable="0">
                    <mxGeometry x="2122" y="4060" as="geometry"/>
                </mxCell>
                <mxCell id="edge11" value="" style="html=1;rounded=1;edgeStyle=orthogonalEdgeStyle;dashed=0;startArrow=diamondThinstartSize=12;endArrow=openThin;endSize=12;strokeColor=#595959;exitX=0.500;exitY=0.000;exitDx=0;exitDy=0;entryX=0.500;entryY=1.000;entryDx=0;entryDy=0;" parent="1" source="node15" target="node38" edge="1">
                    <mxGeometry width="50" height="50" relative="1" as="geometry">
                        <Array as="points"/>
                    </mxGeometry>
                </mxCell>
                <mxCell id="label66" value="1" style="edgeLabel;resizable=0;html=1;align=left;verticalAlign=top;strokeColor=default;" parent="edge11" vertex="1" connectable="0">
                    <mxGeometry x="2870" y="4342" as="geometry"/>
                </mxCell>
                <mxCell id="label70" value="1" style="edgeLabel;resizable=0;html=1;align=left;verticalAlign=top;strokeColor=default;" parent="edge11" vertex="1" connectable="0">
                    <mxGeometry x="2870" y="4090" as="geometry"/>
                </mxCell>
                <mxCell id="edge68" value="" style="html=1;rounded=1;edgeStyle=orthogonalEdgeStyle;dashed=0;startArrow=diamondThinstartSize=12;endArrow=openThin;endSize=12;strokeColor=#595959;exitX=0.500;exitY=0.000;exitDx=0;exitDy=0;entryX=0.998;entryY=0.507;entryDx=0;entryDy=0;entryPerimeter=0;" parent="1" source="node38" target="node37" edge="1">
                    <mxGeometry width="50" height="50" relative="1" as="geometry">
                        <Array as="points">
                            <mxPoint x="2883" y="3410"/>
                        </Array>
                        <mxPoint x="1900" y="3411" as="targetPoint"/>
                    </mxGeometry>
                </mxCell>
                <mxCell id="label408" value="1" style="edgeLabel;resizable=0;html=1;align=left;verticalAlign=top;strokeColor=default;" parent="edge68" vertex="1" connectable="0">
                    <mxGeometry x="2870" y="3826" as="geometry"/>
                </mxCell>
                <mxCell id="label412" value="1" style="edgeLabel;resizable=0;html=1;align=left;verticalAlign=top;strokeColor=default;" parent="edge68" vertex="1" connectable="0">
                    <mxGeometry x="1920" y="3392" as="geometry"/>
                </mxCell>
                <mxCell id="edge69" value="" style="html=1;rounded=1;edgeStyle=orthogonalEdgeStyle;dashed=0;startArrow=diamondThinstartSize=12;endArrow=openThin;endSize=12;strokeColor=#595959;exitX=0.434;exitY=0.000;exitDx=0;exitDy=0;entryX=0.500;entryY=1.000;entryDx=0;entryDy=0;" parent="1" source="node2" target="node31" edge="1">
                    <mxGeometry width="50" height="50" relative="1" as="geometry">
                        <Array as="points"/>
                    </mxGeometry>
                </mxCell>
                <mxCell id="label414" value="1" style="edgeLabel;resizable=0;html=1;align=left;verticalAlign=top;strokeColor=default;" parent="edge69" vertex="1" connectable="0">
                    <mxGeometry x="2477" y="2625" as="geometry">
                        <mxPoint x="-10" y="54" as="offset"/>
                    </mxGeometry>
                </mxCell>
                <mxCell id="label418" value="*" style="edgeLabel;resizable=0;html=1;align=left;verticalAlign=top;strokeColor=default;" parent="edge69" vertex="1" connectable="0">
                    <mxGeometry x="2475" y="2100" as="geometry"/>
                </mxCell>
                <mxCell id="edge2" value="" style="html=1;rounded=1;edgeStyle=orthogonalEdgeStyle;dashed=1;startArrow=none;endArrow=block;endSize=12;strokeColor=#008200;exitX=0.018;exitY=0.000;exitDx=0;exitDy=0;entryX=0.540;entryY=1.000;entryDx=0;entryDy=0;" parent="1" source="node2" target="node18" edge="1">
                    <mxGeometry width="50" height="50" relative="1" as="geometry">
                        <Array as="points"/>
                    </mxGeometry>
                </mxCell>
                <mxCell id="edge53" value="" style="html=1;rounded=1;edgeStyle=orthogonalEdgeStyle;dashed=0;startArrow=diamondThinstartSize=12;endArrow=openThin;endSize=12;strokeColor=#595959;exitX=0.500;exitY=0.000;exitDx=0;exitDy=0;entryX=1;entryY=0.623;entryDx=0;entryDy=0;entryPerimeter=0;" parent="1" source="node48" target="node37" edge="1">
                    <mxGeometry width="50" height="50" relative="1" as="geometry">
                        <Array as="points">
                            <mxPoint x="2134" y="3471"/>
                        </Array>
                    </mxGeometry>
                </mxCell>
                <mxCell id="label318" value="1" style="edgeLabel;resizable=0;html=1;align=left;verticalAlign=top;strokeColor=default;" parent="edge53" vertex="1" connectable="0">
                    <mxGeometry x="2122" y="3851" as="geometry"/>
                </mxCell>
                <mxCell id="label322" value="1" style="edgeLabel;resizable=0;html=1;align=left;verticalAlign=top;strokeColor=default;" parent="edge53" vertex="1" connectable="0">
                    <mxGeometry x="1922" y="3452" as="geometry"/>
                </mxCell>
                <mxCell id="edge12" value="" style="html=1;rounded=1;edgeStyle=orthogonalEdgeStyle;dashed=0;startArrow=diamondThinstartSize=12;endArrow=openThin;endSize=12;strokeColor=#595959;exitX=1.000;exitY=0.500;exitDx=0;exitDy=0;entryX=0.500;entryY=1.000;entryDx=0;entryDy=0;" parent="1" source="node49" target="node12" edge="1">
                    <mxGeometry width="50" height="50" relative="1" as="geometry">
                        <Array as="points">
                            <mxPoint x="3041" y="714"/>
                        </Array>
                    </mxGeometry>
                </mxCell>
                <mxCell id="label72" value="1" style="edgeLabel;resizable=0;html=1;align=left;verticalAlign=top;strokeColor=default;" parent="edge12" vertex="1" connectable="0">
                    <mxGeometry x="2320" y="690" as="geometry"/>
                </mxCell>
                <mxCell id="label76" value="1" style="edgeLabel;resizable=0;html=1;align=left;verticalAlign=top;strokeColor=default;" parent="edge12" vertex="1" connectable="0">
                    <mxGeometry x="3029" y="289" as="geometry"/>
                </mxCell>
                <mxCell id="edge23" value="" style="html=1;rounded=1;edgeStyle=orthogonalEdgeStyle;dashed=0;startArrow=diamondThinstartSize=12;endArrow=openThin;endSize=12;strokeColor=#595959;exitX=0.412;exitY=0.000;exitDx=0;exitDy=0;entryX=0.500;entryY=1.000;entryDx=0;entryDy=0;" parent="1" source="node49" target="node9" edge="1">
                    <mxGeometry width="50" height="50" relative="1" as="geometry">
                        <Array as="points"/>
                    </mxGeometry>
                </mxCell>
                <mxCell id="label138" value="1" style="edgeLabel;resizable=0;html=1;align=left;verticalAlign=top;strokeColor=default;" parent="edge23" vertex="1" connectable="0">
                    <mxGeometry x="2130" y="560" as="geometry"/>
                </mxCell>
                <mxCell id="label142" value="1" style="edgeLabel;resizable=0;html=1;align=left;verticalAlign=top;strokeColor=default;" parent="edge23" vertex="1" connectable="0">
                    <mxGeometry x="2130" y="360" as="geometry"/>
                </mxCell>
                <mxCell id="edge15" value="" style="html=1;rounded=1;edgeStyle=orthogonalEdgeStyle;dashed=0;startArrow=diamondThinstartSize=12;endArrow=openThin;endSize=12;strokeColor=#595959;exitX=0.000;exitY=0.500;exitDx=0;exitDy=0;entryX=0.534;entryY=1.000;entryDx=0;entryDy=0;" parent="1" source="node44" target="node39" edge="1">
                    <mxGeometry width="50" height="50" relative="1" as="geometry">
                        <Array as="points">
                            <mxPoint x="3558" y="2290"/>
                        </Array>
                    </mxGeometry>
                </mxCell>
                <mxCell id="label90" value="1" style="edgeLabel;resizable=0;html=1;align=left;verticalAlign=top;strokeColor=default;" parent="edge15" vertex="1" connectable="0">
                    <mxGeometry x="3712" y="2290" as="geometry"/>
                </mxCell>
                <mxCell id="label94" value="1" style="edgeLabel;resizable=0;html=1;align=left;verticalAlign=top;strokeColor=default;" parent="edge15" vertex="1" connectable="0">
                    <mxGeometry x="3560" y="1760" as="geometry"/>
                </mxCell>
                <mxCell id="edge45" value="" style="html=1;rounded=1;edgeStyle=orthogonalEdgeStyle;dashed=0;startArrow=diamondThinstartSize=12;endArrow=openThin;endSize=12;strokeColor=#595959;exitX=0.500;exitY=0.000;exitDx=0;exitDy=0;entryX=0.500;entryY=1.000;entryDx=0;entryDy=0;" parent="1" source="node3" target="node45" edge="1">
                    <mxGeometry width="50" height="50" relative="1" as="geometry">
                        <Array as="points"/>
                    </mxGeometry>
                </mxCell>
                <mxCell id="label270" value="1" style="edgeLabel;resizable=0;html=1;align=left;verticalAlign=top;strokeColor=default;" parent="edge45" vertex="1" connectable="0">
                    <mxGeometry x="2474" y="4367" as="geometry"/>
                </mxCell>
                <mxCell id="label274" value="1" style="edgeLabel;resizable=0;html=1;align=left;verticalAlign=top;strokeColor=default;" parent="edge45" vertex="1" connectable="0">
                    <mxGeometry x="2474" y="4050" as="geometry"/>
                </mxCell>
                <mxCell id="edge60" value="" style="html=1;rounded=1;edgeStyle=orthogonalEdgeStyle;dashed=0;startArrow=diamondThinstartSize=12;endArrow=openThin;endSize=12;strokeColor=#595959;exitX=0.500;exitY=0.000;exitDx=0;exitDy=0;entryX=1;entryY=0.536;entryDx=0;entryDy=0;entryPerimeter=0;" parent="1" source="node45" target="node37" edge="1">
                    <mxGeometry width="50" height="50" relative="1" as="geometry">
                        <Array as="points">
                            <mxPoint x="2486" y="3426"/>
                        </Array>
                    </mxGeometry>
                </mxCell>
                <mxCell id="label360" value="1" style="edgeLabel;resizable=0;html=1;align=left;verticalAlign=top;strokeColor=default;" parent="edge60" vertex="1" connectable="0">
                    <mxGeometry x="2474" y="3868" as="geometry"/>
                </mxCell>
                <mxCell id="label364" value="1" style="edgeLabel;resizable=0;html=1;align=left;verticalAlign=top;strokeColor=default;" parent="edge60" vertex="1" connectable="0">
                    <mxGeometry x="1920" y="3416" as="geometry"/>
                </mxCell>
                <mxCell id="edge35" value="" style="html=1;rounded=1;edgeStyle=orthogonalEdgeStyle;dashed=0;startArrow=diamondThinstartSize=12;endArrow=openThin;endSize=12;strokeColor=#595959;exitX=0.500;exitY=0.000;exitDx=0;exitDy=0;entryX=0.500;entryY=1.000;entryDx=0;entryDy=0;" parent="1" source="node16" target="node17" edge="1">
                    <mxGeometry width="50" height="50" relative="1" as="geometry">
                        <Array as="points">
                            <mxPoint x="28" y="4371"/>
                        </Array>
                    </mxGeometry>
                </mxCell>
                <mxCell id="label210" value="1" style="edgeLabel;resizable=0;html=1;align=left;verticalAlign=top;strokeColor=default;" parent="edge35" vertex="1" connectable="0">
                    <mxGeometry x="17" y="4344" as="geometry"/>
                </mxCell>
                <mxCell id="label214" value="1" style="edgeLabel;resizable=0;html=1;align=left;verticalAlign=top;strokeColor=default;" parent="edge35" vertex="1" connectable="0">
                    <mxGeometry x="17" y="4053" as="geometry"/>
                </mxCell>
                <mxCell id="edge22" value="" style="html=1;rounded=1;edgeStyle=orthogonalEdgeStyle;dashed=0;startArrow=diamondThinstartSize=12;endArrow=openThin;endSize=12;strokeColor=#595959;exitX=1.000;exitY=0.404;exitDx=0;exitDy=0;entryX=0.000;entryY=0.500;entryDx=0;entryDy=0;" parent="1" source="node23" target="node49" edge="1">
                    <mxGeometry width="50" height="50" relative="1" as="geometry">
                        <Array as="points"/>
                    </mxGeometry>
                </mxCell>
                <mxCell id="label132" value="1" style="edgeLabel;resizable=0;html=1;align=left;verticalAlign=top;strokeColor=default;" parent="edge22" vertex="1" connectable="0">
                    <mxGeometry x="2007" y="692" as="geometry"/>
                </mxCell>
                <mxCell id="label136" value="1" style="edgeLabel;resizable=0;html=1;align=left;verticalAlign=top;strokeColor=default;" parent="edge22" vertex="1" connectable="0">
                    <mxGeometry x="1890" y="692" as="geometry"/>
                </mxCell>
                <mxCell id="label137" value="" style="edgeLabel;resizable=0;html=1;align=left;verticalAlign=top;strokeColor=default;" parent="edge22" vertex="1" connectable="0">
                    <mxGeometry x="1915" y="714" as="geometry"/>
                </mxCell>
                <mxCell id="edge56" value="" style="html=1;rounded=1;edgeStyle=orthogonalEdgeStyle;dashed=0;startArrow=diamondThinstartSize=12;endArrow=openThin;endSize=12;strokeColor=#595959;exitX=0.867;exitY=0.000;exitDx=0;exitDy=0;entryX=0.500;entryY=1.000;entryDx=0;entryDy=0;" parent="1" source="node23" target="node7" edge="1">
                    <mxGeometry width="50" height="50" relative="1" as="geometry">
                        <Array as="points"/>
                    </mxGeometry>
                </mxCell>
                <mxCell id="label336" value="1" style="edgeLabel;resizable=0;html=1;align=left;verticalAlign=top;strokeColor=default;" parent="edge56" vertex="1" connectable="0">
                    <mxGeometry x="1818" y="470" as="geometry"/>
                </mxCell>
                <mxCell id="label340" value="1" style="edgeLabel;resizable=0;html=1;align=left;verticalAlign=top;strokeColor=default;" parent="edge56" vertex="1" connectable="0">
                    <mxGeometry x="1818" y="300" as="geometry"/>
                </mxCell>
                <mxCell id="edge0" value="" style="html=1;rounded=1;edgeStyle=orthogonalEdgeStyle;dashed=1;startArrow=none;endArrow=block;endSize=12;strokeColor=#008200;exitX=0.540;exitY=0.000;exitDx=0;exitDy=0;entryX=0.000;entryY=0.500;entryDx=0;entryDy=0;" parent="1" source="node36" target="node18" edge="1">
                    <mxGeometry width="50" height="50" relative="1" as="geometry">
                        <Array as="points">
                            <mxPoint x="1317" y="2405"/>
                        </Array>
                    </mxGeometry>
                </mxCell>
                <mxCell id="edge62" value="" style="html=1;rounded=1;edgeStyle=orthogonalEdgeStyle;dashed=0;startArrow=diamondThinstartSize=12;endArrow=openThin;endSize=12;strokeColor=#595959;exitX=0.446;exitY=0.000;exitDx=0;exitDy=0;" parent="1" source="node36" edge="1">
                    <mxGeometry width="50" height="50" relative="1" as="geometry">
                        <Array as="points">
                            <mxPoint x="1292" y="766"/>
                        </Array>
                        <mxPoint x="1502" y="766" as="targetPoint"/>
                    </mxGeometry>
                </mxCell>
                <mxCell id="label372" value="1" style="edgeLabel;resizable=0;html=1;align=left;verticalAlign=top;strokeColor=default;" parent="edge62" vertex="1" connectable="0">
                    <mxGeometry x="1280" y="2741" as="geometry"/>
                </mxCell>
                <mxCell id="label376" value="*" style="edgeLabel;resizable=0;html=1;align=left;verticalAlign=top;strokeColor=default;" parent="edge62" vertex="1" connectable="0">
                    <mxGeometry x="1480" y="770" as="geometry"/>
                </mxCell>
                <mxCell id="edge74" value="" style="html=1;rounded=1;edgeStyle=orthogonalEdgeStyle;dashed=0;startArrow=diamondThinstartSize=12;endArrow=openThin;endSize=12;strokeColor=#595959;exitX=0.500;exitY=0.000;exitDx=0;exitDy=0;entryX=0.500;entryY=1.000;entryDx=0;entryDy=0;" parent="1" source="node24" target="node16" edge="1">
                    <mxGeometry width="50" height="50" relative="1" as="geometry">
                        <Array as="points">
                            <mxPoint x="34" y="4995"/>
                        </Array>
                    </mxGeometry>
                </mxCell>
                <mxCell id="label444" value="1" style="edgeLabel;resizable=0;html=1;align=left;verticalAlign=top;strokeColor=default;" parent="edge74" vertex="1" connectable="0">
                    <mxGeometry x="17" y="4972" as="geometry"/>
                </mxCell>
                <mxCell id="label448" value="1" style="edgeLabel;resizable=0;html=1;align=left;verticalAlign=top;strokeColor=default;" parent="edge74" vertex="1" connectable="0">
                    <mxGeometry x="17" y="4585" as="geometry"/>
                </mxCell>
                <mxCell id="edge37" value="" style="html=1;rounded=1;edgeStyle=orthogonalEdgeStyle;dashed=0;startArrow=diamondThinstartSize=12;endArrow=openThin;endSize=12;strokeColor=#595959;exitX=1.000;exitY=0.885;exitDx=0;exitDy=0;" parent="1" source="node1" target="24" edge="1">
                    <mxGeometry width="50" height="50" relative="1" as="geometry">
                        <Array as="points">
                            <mxPoint x="1579" y="5386"/>
                        </Array>
                    </mxGeometry>
                </mxCell>
                <mxCell id="label222" value="1" style="edgeLabel;resizable=0;html=1;align=left;verticalAlign=top;strokeColor=default;" parent="edge37" vertex="1" connectable="0">
                    <mxGeometry x="800" y="5360" as="geometry"/>
                </mxCell>
                <mxCell id="label226" value="1" style="edgeLabel;resizable=0;html=1;align=left;verticalAlign=top;strokeColor=default;" parent="edge37" vertex="1" connectable="0">
                    <mxGeometry x="1580" y="4720" as="geometry"/>
                </mxCell>
                <mxCell id="6" value="&lt;h1&gt;&lt;b&gt;Enums&lt;/b&gt;&lt;/h1&gt;" style="text;html=1;align=center;verticalAlign=middle;whiteSpace=wrap;rounded=0;" parent="1" vertex="1">
                    <mxGeometry x="1762" y="-20" width="60" height="30" as="geometry"/>
                </mxCell>
                <mxCell id="10" value="&lt;h1&gt;Model&lt;/h1&gt;" style="text;html=1;align=center;verticalAlign=middle;whiteSpace=wrap;rounded=0;fontStyle=1" parent="1" vertex="1">
                    <mxGeometry x="879" y="530" width="60" height="30" as="geometry"/>
                </mxCell>
                <mxCell id="13" value="&lt;h1&gt;&lt;b&gt;Utilities&lt;/b&gt;&lt;/h1&gt;" style="text;html=1;align=center;verticalAlign=middle;whiteSpace=wrap;rounded=0;" parent="1" vertex="1">
                    <mxGeometry x="3670" y="2160" width="60" height="30" as="geometry"/>
                </mxCell>
                <mxCell id="16" value="&lt;h1&gt;Interface&lt;/h1&gt;" style="text;html=1;align=center;verticalAlign=middle;whiteSpace=wrap;rounded=0;" parent="1" vertex="1">
                    <mxGeometry x="2120" y="2270" width="60" height="30" as="geometry"/>
                </mxCell>
                <mxCell id="18" value="&lt;h1&gt;Repositories&lt;/h1&gt;" style="text;html=1;align=center;verticalAlign=middle;whiteSpace=wrap;rounded=0;" parent="1" vertex="1">
                    <mxGeometry x="1400" y="2581" width="60" height="30" as="geometry"/>
                </mxCell>
                <mxCell id="21" value="&lt;h1&gt;Config&lt;/h1&gt;" style="text;html=1;align=center;verticalAlign=middle;whiteSpace=wrap;rounded=0;" parent="1" vertex="1">
                    <mxGeometry x="1352" y="3180" width="60" height="30" as="geometry"/>
                </mxCell>
                <mxCell id="23" value="&lt;h1&gt;Services&lt;/h1&gt;" style="text;html=1;align=center;verticalAlign=middle;whiteSpace=wrap;rounded=0;" parent="1" vertex="1">
                    <mxGeometry x="-190" y="3760" width="60" height="30" as="geometry"/>
                </mxCell>
                <mxCell id="25" value="&lt;h1&gt;Controller&lt;/h1&gt;" style="text;html=1;align=center;verticalAlign=middle;whiteSpace=wrap;rounded=0;" parent="1" vertex="1">
                    <mxGeometry x="90" y="4270" width="60" height="30" as="geometry"/>
                </mxCell>
                <mxCell id="27" value="&lt;h1&gt;View&lt;/h1&gt;" style="text;html=1;align=center;verticalAlign=middle;whiteSpace=wrap;rounded=0;" parent="1" vertex="1">
                    <mxGeometry x="-150" y="4880" width="60" height="30" as="geometry"/>
                </mxCell>
                <mxCell id="28" value="Defined a set of name constant to be used in the application" style="text;html=1;align=center;verticalAlign=middle;whiteSpace=wrap;rounded=0;" parent="1" vertex="1">
                    <mxGeometry x="1870" y="-20" width="240" height="30" as="geometry"/>
                </mxCell>
                <mxCell id="29" value="&lt;font style=&quot;color: rgb(31, 31, 31);&quot;&gt;Represent the core data and business entities for the application.&lt;/font&gt;&lt;div&gt;&lt;font style=&quot;color: rgb(31, 31, 31);&quot;&gt;&lt;br&gt;&lt;/font&gt;&lt;/div&gt;&lt;div&gt;&lt;font style=&quot;color: rgb(31, 31, 31);&quot;&gt;&lt;br&gt;&lt;/font&gt;&lt;/div&gt;&lt;div&gt;&lt;font style=&quot;color: rgb(31, 31, 31);&quot;&gt;&lt;b&gt;Encapsulation&lt;/b&gt;: each of the atrributes are using private modifers to restricting direct access. It then can be accessed through public accessors like the getters and setters.&lt;/font&gt;&lt;/div&gt;" style="text;html=1;align=left;verticalAlign=middle;whiteSpace=wrap;rounded=0;fontColor=default;" parent="1" vertex="1">
                    <mxGeometry x="834" y="570" width="150" height="170" as="geometry"/>
                </mxCell>
                <mxCell id="32" value="Helper classes and functions that provide common functionalities across different parts of the application" style="text;html=1;align=center;verticalAlign=middle;whiteSpace=wrap;rounded=0;" parent="1" vertex="1">
                    <mxGeometry x="3763" y="2155" width="227" height="40" as="geometry"/>
                </mxCell>
                <mxCell id="33" value="Define blueprints for classes that all repository classes should implement. This promotes consistency." style="text;html=1;align=center;verticalAlign=middle;whiteSpace=wrap;rounded=0;" parent="1" vertex="1">
                    <mxGeometry x="2220" y="2270" width="210" height="30" as="geometry"/>
                </mxCell>
                <mxCell id="34" value="Responsible for data access logic, like create, read, update and delete model objects. Also act as a database for the application" style="text;html=1;align=left;verticalAlign=middle;whiteSpace=wrap;rounded=0;" parent="1" vertex="1">
                    <mxGeometry x="1347" y="2630" width="250" height="30" as="geometry"/>
                </mxCell>
                <mxCell id="35" value="A central place to manage and provide access to shared resources and services like database repositories, authentication service, and the current user session.&amp;nbsp;" style="text;html=1;align=left;verticalAlign=middle;whiteSpace=wrap;rounded=0;" parent="1" vertex="1">
                    <mxGeometry x="1328" y="3210" width="142" height="140" as="geometry"/>
                </mxCell>
                <mxCell id="37" value="Contain the main business logic of the application, interact with the databases" style="text;html=1;align=center;verticalAlign=middle;whiteSpace=wrap;rounded=0;" parent="1" vertex="1">
                    <mxGeometry x="-220" y="3800" width="220" height="30" as="geometry"/>
                </mxCell>
                <mxCell id="38" value="Act as the intermediary between View (user interface) and Service. The classes will handle the user input and process the data (calling methods in Services)" style="text;html=1;align=left;verticalAlign=middle;whiteSpace=wrap;rounded=0;" parent="1" vertex="1">
                    <mxGeometry x="60" y="4310" width="300" height="30" as="geometry"/>
                </mxCell>
                <mxCell id="40" value="Handles all the user interfaces, like displaying menus, prompting for user input, and showing data to user." style="text;html=1;align=center;verticalAlign=middle;whiteSpace=wrap;rounded=0;" parent="1" vertex="1">
                    <mxGeometry x="-202" y="4930" width="222.5" height="30" as="geometry"/>
                </mxCell>
                <mxCell id="41" value="The main programme to run the application" style="text;html=1;align=center;verticalAlign=middle;whiteSpace=wrap;rounded=0;" parent="1" vertex="1">
                    <mxGeometry x="3091" y="4920" width="140" height="30" as="geometry"/>
                </mxCell>
                <mxCell id="43" value="&lt;div&gt;&lt;font style=&quot;color: rgb(31, 31, 31);&quot;&gt;&lt;b&gt;Abstraction: &lt;/b&gt;UserModel defines the general concept and common features of a user but cannot be instantiated directly. It also define abstract methods (getMenuOptions) that must be implemented by concrete subclasses&lt;/font&gt;&lt;/div&gt;&lt;font style=&quot;color: rgb(31, 31, 31);&quot;&gt;&lt;b&gt;&lt;div&gt;&lt;b&gt;&lt;br&gt;&lt;/b&gt;&lt;/div&gt;Inheritance&lt;/b&gt;: Applicant and HDB Manger is a type of User. Hence, it inherited basic attributes and authentication, and adding some specific features.&lt;/font&gt;&lt;div&gt;&lt;font style=&quot;color: rgb(31, 31, 31);&quot;&gt;&lt;br&gt;&lt;/font&gt;&lt;/div&gt;&lt;div&gt;&lt;font style=&quot;color: rgb(31, 31, 31);&quot;&gt;&lt;b&gt;Polymorphism: &lt;/b&gt;Each User&#39;s subclasses (Applicant, HDB Officer &amp;amp; Manager) override the getMenuOptions to display the correct menu for each user&lt;/font&gt;&lt;/div&gt;" style="text;html=1;align=left;verticalAlign=middle;whiteSpace=wrap;rounded=0;" parent="1" vertex="1">
                    <mxGeometry x="1310" y="831" width="185" height="260" as="geometry"/>
                </mxCell>
                <mxCell id="44" value="&lt;b&gt;Inheritance: &lt;/b&gt;HDB Officer is a special type of user that also has the functionality of a Applicant. Hence, it inherit properties from Applicant, and therefore also inherit from User" style="text;html=1;align=left;verticalAlign=middle;whiteSpace=wrap;rounded=0;" parent="1" vertex="1">
                    <mxGeometry x="3160" y="1850" width="230" height="90" as="geometry"/>
                </mxCell>
                <mxCell id="45" value="&lt;b&gt;Encapsulation: &lt;/b&gt;hashPasswd is decleared as private method with hides the specific algorithm used to hadhing password, while the rest of the classes uses it via public methods like setPassword and authenticate." style="text;html=1;align=left;verticalAlign=middle;whiteSpace=wrap;rounded=0;" parent="1" vertex="1">
                    <mxGeometry x="1895" y="900" width="310" height="80" as="geometry"/>
                </mxCell>
                <mxCell id="46" value="&lt;b&gt;Encapsulation: &lt;/b&gt;Each Repositories class encapsulates its internal data structure like List&amp;lt;UserModel&amp;gt;, and provides public methods like findAll to interact with it&lt;div&gt;&lt;br&gt;&lt;/div&gt;&lt;div&gt;&lt;font style=&quot;color: rgb(0, 0, 0);&quot;&gt;&lt;b&gt;Polymorphism: &lt;/b&gt;Each Repositories classes implement the RepoInterface and provide concrete implementations for methods like save, findAll, findByID&lt;/font&gt;&lt;/div&gt;" style="text;html=1;align=left;verticalAlign=middle;whiteSpace=wrap;rounded=0;" parent="1" vertex="1">
                    <mxGeometry x="1702" y="2575" width="296" height="140" as="geometry"/>
                </mxCell>
                <mxCell id="47" value="&lt;font&gt;&lt;font style=&quot;color: rgb(0, 0, 0);&quot;&gt;Encapsulation: &lt;/font&gt;&lt;span style=&quot;font-weight: normal;&quot;&gt;&lt;font style=&quot;color: rgb(0, 0, 0);&quot;&gt;Shared application state like scanner, currentUser and various repositories are encapsulated, making them only accessible via public getter methods&lt;/font&gt;&lt;/span&gt;&lt;/font&gt;" style="text;html=1;align=left;verticalAlign=middle;whiteSpace=wrap;rounded=0;fontStyle=1;fontColor=#1F1F1F;" parent="1" vertex="1">
                    <mxGeometry x="1327.5" y="3480" width="150" height="120" as="geometry"/>
                </mxCell>
                <mxCell id="48" value="&lt;b&gt;Encapsulation: &lt;/b&gt;private static methods like addProjectByArrayList and addUserbyArrayList encapsulate the logic for parsing lists of data and creating User/Project objects, hiding these details from the public methods" style="text;html=1;align=left;verticalAlign=middle;whiteSpace=wrap;rounded=0;" parent="1" vertex="1">
                    <mxGeometry x="3175" y="3793" width="380" height="90" as="geometry"/>
                </mxCell>
                <mxCell id="49" value="&lt;font style=&quot;color: rgb(0, 0, 0);&quot;&gt;&lt;b style=&quot;&quot;&gt;Polymorphism:&amp;nbsp;&lt;/b&gt;&lt;/font&gt;&lt;div&gt;&lt;font style=&quot;color: rgb(0, 0, 0);&quot;&gt;currentUser variable is of type UserModel. However, it can hold instances of ApplicantModel, HDBOfficerModel, or HDBManagerModel. Code that uses currentUser works polymorphically based on the actual object type assigned during login or registration&lt;/font&gt;&lt;/div&gt;" style="text;html=1;align=left;verticalAlign=middle;whiteSpace=wrap;rounded=0;" parent="1" vertex="1">
                    <mxGeometry x="1910" y="3240" width="180" height="30" as="geometry"/>
                </mxCell>
                <mxCell id="50" value="&lt;font&gt;&lt;font style=&quot;color: rgb(0, 0, 0);&quot;&gt;Polymorphism: &lt;/font&gt;&lt;span style=&quot;font-weight: normal;&quot;&gt;&lt;font style=&quot;color: rgb(0, 0, 0);&quot;&gt;the method startMenu checks the role of currentUser and calls the appropriate view (ApplicantView, HDBOfficerView or HDBManagerView). When methods like getMenuOptions or getUserRole are called on currentUser, the version specific to the actual object&#39;s class is executed.&lt;/font&gt;&lt;/span&gt;&lt;/font&gt;" style="text;html=1;align=left;verticalAlign=middle;whiteSpace=wrap;rounded=0;fontStyle=1" parent="1" vertex="1">
                    <mxGeometry x="-129" y="5240" width="320" height="80" as="geometry"/>
                </mxCell>
                <mxCell id="51" value="" style="edgeLabel;resizable=0;html=1;align=left;verticalAlign=top;strokeColor=default;" vertex="1" connectable="0" parent="1">
                    <mxGeometry x="2413" y="840" as="geometry"/>
                </mxCell>
                <mxCell id="53" value="Relationship is &lt;b&gt;&quot;Has-a&quot; &lt;/b&gt;specifically &lt;b&gt;Aggregation&lt;/b&gt;,&lt;div&gt;where BTOProjectModel can only have 1-10 UserModel that are managing the Project&lt;/div&gt;" style="text;html=1;align=left;verticalAlign=middle;whiteSpace=wrap;rounded=0;" vertex="1" parent="1">
                    <mxGeometry x="2325.5" y="798" width="175" height="33" as="geometry"/>
                </mxCell>
                <mxCell id="65" value="" style="html=1;whiteSpace=wrap;aspect=fixed;shape=isoRectangle;" vertex="1" parent="1">
                    <mxGeometry x="1884" y="850" width="33.33" height="20" as="geometry"/>
                </mxCell>
                <mxCell id="66" value="" style="html=1;whiteSpace=wrap;aspect=fixed;shape=isoRectangle;" vertex="1" parent="1">
                    <mxGeometry x="2683" y="1581.4" width="37" height="22.2" as="geometry"/>
                </mxCell>
                <mxCell id="67" value="" style="edgeLabel;resizable=0;html=1;align=left;verticalAlign=top;strokeColor=default;" vertex="1" connectable="0" parent="1">
                    <mxGeometry x="2710" y="1570" as="geometry"/>
                </mxCell>
                <mxCell id="68" value="&lt;b&gt;BTOApplicationModel &quot;Has-a&quot; BTOProjectModel&lt;/b&gt;" style="text;html=1;align=left;verticalAlign=middle;whiteSpace=wrap;rounded=0;" vertex="1" parent="1">
                    <mxGeometry x="2771" y="1561.4" width="209" height="20" as="geometry"/>
                </mxCell>
                <mxCell id="69" value="" style="html=1;whiteSpace=wrap;aspect=fixed;shape=isoRectangle;rotation=-90;fillColor=#2E2E2E;" vertex="1" parent="1">
                    <mxGeometry x="3415.87" y="940.35" width="27.25" height="16.35" as="geometry"/>
                </mxCell>
                <mxCell id="73" value="&lt;b&gt;BTOApplicationModel &quot;Has-a&quot; BookingDetailModel (Composition)&lt;/b&gt;" style="text;html=1;align=left;verticalAlign=middle;whiteSpace=wrap;rounded=0;" vertex="1" parent="1">
                    <mxGeometry x="3244" y="990" width="165.88" height="20" as="geometry"/>
                </mxCell>
                <mxCell id="74" value="" style="html=1;whiteSpace=wrap;aspect=fixed;shape=isoRectangle;rotation=90;fillColor=#000000;" vertex="1" parent="1">
                    <mxGeometry x="1630.34" y="1541.3999999999999" width="33.33" height="20" as="geometry"/>
                </mxCell>
                <mxCell id="78" value="Relationship is &lt;b&gt;&quot;Has-a&quot; &lt;/b&gt;specifically &lt;b&gt;Composition&lt;/b&gt;,&lt;div&gt;Each enquiry has its own enquiryResponse that isn&#39;t shared&lt;/div&gt;" style="text;html=1;align=left;verticalAlign=middle;whiteSpace=wrap;rounded=0;" vertex="1" parent="1">
                    <mxGeometry x="1670" y="1581.3999999999999" width="175" height="33" as="geometry"/>
                </mxCell>
            </root>
        </mxGraphModel>
    </diagram>
</mxfile>